<mxfile host="Electron" agent="Mozilla/5.0 (Windows NT 10.0; Win64; x64) AppleWebKit/537.36 (KHTML, like Gecko) draw.io/27.0.2 Chrome/134.0.6998.205 Electron/35.3.0 Safari/537.36" version="27.0.2" pages="14">
  <diagram name="Pilihan Menu " id="Y3A9pHZDf5B4Pq4lXujc">
    <mxGraphModel dx="1455" dy="2187" grid="1" gridSize="10" guides="1" tooltips="1" connect="1" arrows="1" fold="1" page="1" pageScale="1" pageWidth="827" pageHeight="1169" math="0" shadow="0">
      <root>
        <mxCell id="0" />
        <mxCell id="1" parent="0" />
        <mxCell id="8mEYjzqc0WgLYwDRPM7n-8" value="" style="edgeStyle=orthogonalEdgeStyle;rounded=0;orthogonalLoop=1;jettySize=auto;html=1;" parent="1" source="8mEYjzqc0WgLYwDRPM7n-2" target="8mEYjzqc0WgLYwDRPM7n-7" edge="1">
          <mxGeometry relative="1" as="geometry" />
        </mxCell>
        <mxCell id="8mEYjzqc0WgLYwDRPM7n-2" value="1. Registrasi&amp;nbsp;&lt;div&gt;2. Login&lt;/div&gt;&lt;div&gt;3. Keluar&lt;/div&gt;" style="shape=parallelogram;html=1;strokeWidth=2;perimeter=parallelogramPerimeter;whiteSpace=wrap;rounded=1;arcSize=12;size=0.23;" parent="1" vertex="1">
          <mxGeometry x="330" y="140" width="140" height="60" as="geometry" />
        </mxCell>
        <mxCell id="8mEYjzqc0WgLYwDRPM7n-4" value="" style="edgeStyle=orthogonalEdgeStyle;rounded=0;orthogonalLoop=1;jettySize=auto;html=1;" parent="1" source="8mEYjzqc0WgLYwDRPM7n-3" target="8mEYjzqc0WgLYwDRPM7n-2" edge="1">
          <mxGeometry relative="1" as="geometry">
            <Array as="points">
              <mxPoint x="400" y="130" />
              <mxPoint x="400" y="130" />
            </Array>
          </mxGeometry>
        </mxCell>
        <mxCell id="8mEYjzqc0WgLYwDRPM7n-3" value="Mulai" style="strokeWidth=2;html=1;shape=mxgraph.flowchart.start_1;whiteSpace=wrap;" parent="1" vertex="1">
          <mxGeometry x="350" width="100" height="60" as="geometry" />
        </mxCell>
        <mxCell id="8mEYjzqc0WgLYwDRPM7n-11" value="" style="edgeStyle=orthogonalEdgeStyle;rounded=0;orthogonalLoop=1;jettySize=auto;html=1;" parent="1" source="8mEYjzqc0WgLYwDRPM7n-7" target="8mEYjzqc0WgLYwDRPM7n-10" edge="1">
          <mxGeometry relative="1" as="geometry" />
        </mxCell>
        <mxCell id="8mEYjzqc0WgLYwDRPM7n-7" value="Input Pilihan" style="shape=parallelogram;html=1;strokeWidth=2;perimeter=parallelogramPerimeter;whiteSpace=wrap;rounded=1;arcSize=12;size=0.23;" parent="1" vertex="1">
          <mxGeometry x="330" y="280" width="140" height="60" as="geometry" />
        </mxCell>
        <mxCell id="8mEYjzqc0WgLYwDRPM7n-9" value="" style="endArrow=classic;html=1;rounded=0;entryX=0.357;entryY=0.167;entryDx=0;entryDy=0;entryPerimeter=0;" parent="1" target="8mEYjzqc0WgLYwDRPM7n-7" edge="1">
          <mxGeometry width="50" height="50" relative="1" as="geometry">
            <mxPoint x="310" y="290" as="sourcePoint" />
            <mxPoint x="360" y="240" as="targetPoint" />
          </mxGeometry>
        </mxCell>
        <mxCell id="8mEYjzqc0WgLYwDRPM7n-13" value="" style="edgeStyle=orthogonalEdgeStyle;rounded=0;orthogonalLoop=1;jettySize=auto;html=1;" parent="1" source="8mEYjzqc0WgLYwDRPM7n-10" target="8mEYjzqc0WgLYwDRPM7n-12" edge="1">
          <mxGeometry relative="1" as="geometry" />
        </mxCell>
        <mxCell id="R-cTZTO7tqke21ejqiwu-2" value="No" style="edgeLabel;html=1;align=center;verticalAlign=middle;resizable=0;points=[];" vertex="1" connectable="0" parent="8mEYjzqc0WgLYwDRPM7n-13">
          <mxGeometry x="-0.0276" y="1" relative="1" as="geometry">
            <mxPoint as="offset" />
          </mxGeometry>
        </mxCell>
        <mxCell id="8mEYjzqc0WgLYwDRPM7n-19" value="" style="edgeStyle=orthogonalEdgeStyle;rounded=0;orthogonalLoop=1;jettySize=auto;html=1;" parent="1" source="8mEYjzqc0WgLYwDRPM7n-10" target="8mEYjzqc0WgLYwDRPM7n-16" edge="1">
          <mxGeometry relative="1" as="geometry" />
        </mxCell>
        <mxCell id="R-cTZTO7tqke21ejqiwu-1" value="Yes" style="edgeLabel;html=1;align=center;verticalAlign=middle;resizable=0;points=[];" vertex="1" connectable="0" parent="8mEYjzqc0WgLYwDRPM7n-19">
          <mxGeometry x="-0.2153" relative="1" as="geometry">
            <mxPoint as="offset" />
          </mxGeometry>
        </mxCell>
        <mxCell id="8mEYjzqc0WgLYwDRPM7n-10" value="Pilihan 1" style="rhombus;whiteSpace=wrap;html=1;strokeWidth=2;rounded=1;arcSize=12;" parent="1" vertex="1">
          <mxGeometry x="520" y="270" width="80" height="80" as="geometry" />
        </mxCell>
        <mxCell id="8mEYjzqc0WgLYwDRPM7n-15" value="" style="edgeStyle=orthogonalEdgeStyle;rounded=0;orthogonalLoop=1;jettySize=auto;html=1;" parent="1" source="8mEYjzqc0WgLYwDRPM7n-12" target="8mEYjzqc0WgLYwDRPM7n-14" edge="1">
          <mxGeometry relative="1" as="geometry" />
        </mxCell>
        <mxCell id="R-cTZTO7tqke21ejqiwu-4" value="No" style="edgeLabel;html=1;align=center;verticalAlign=middle;resizable=0;points=[];" vertex="1" connectable="0" parent="8mEYjzqc0WgLYwDRPM7n-15">
          <mxGeometry x="-0.1435" y="1" relative="1" as="geometry">
            <mxPoint as="offset" />
          </mxGeometry>
        </mxCell>
        <mxCell id="8mEYjzqc0WgLYwDRPM7n-20" value="" style="edgeStyle=orthogonalEdgeStyle;rounded=0;orthogonalLoop=1;jettySize=auto;html=1;" parent="1" source="8mEYjzqc0WgLYwDRPM7n-12" target="8mEYjzqc0WgLYwDRPM7n-18" edge="1">
          <mxGeometry relative="1" as="geometry" />
        </mxCell>
        <mxCell id="R-cTZTO7tqke21ejqiwu-3" value="Yes" style="edgeLabel;html=1;align=center;verticalAlign=middle;resizable=0;points=[];" vertex="1" connectable="0" parent="8mEYjzqc0WgLYwDRPM7n-20">
          <mxGeometry x="-0.2153" y="-1" relative="1" as="geometry">
            <mxPoint as="offset" />
          </mxGeometry>
        </mxCell>
        <mxCell id="8mEYjzqc0WgLYwDRPM7n-12" value="Pilihan 2" style="rhombus;whiteSpace=wrap;html=1;strokeWidth=2;rounded=1;arcSize=12;" parent="1" vertex="1">
          <mxGeometry x="680" y="270" width="80" height="80" as="geometry" />
        </mxCell>
        <mxCell id="8mEYjzqc0WgLYwDRPM7n-27" value="" style="edgeStyle=orthogonalEdgeStyle;rounded=0;orthogonalLoop=1;jettySize=auto;html=1;" parent="1" source="8mEYjzqc0WgLYwDRPM7n-14" target="8mEYjzqc0WgLYwDRPM7n-26" edge="1">
          <mxGeometry relative="1" as="geometry" />
        </mxCell>
        <mxCell id="R-cTZTO7tqke21ejqiwu-6" value="No" style="edgeLabel;html=1;align=center;verticalAlign=middle;resizable=0;points=[];" vertex="1" connectable="0" parent="8mEYjzqc0WgLYwDRPM7n-27">
          <mxGeometry x="-0.0694" y="1" relative="1" as="geometry">
            <mxPoint as="offset" />
          </mxGeometry>
        </mxCell>
        <mxCell id="8mEYjzqc0WgLYwDRPM7n-14" value="Pilihan 3" style="rhombus;whiteSpace=wrap;html=1;strokeWidth=2;rounded=1;arcSize=12;" parent="1" vertex="1">
          <mxGeometry x="827" y="270" width="80" height="80" as="geometry" />
        </mxCell>
        <mxCell id="8mEYjzqc0WgLYwDRPM7n-16" value="" style="verticalLabelPosition=bottom;verticalAlign=top;html=1;shape=offPageConnector;rounded=0;size=0.5;" parent="1" vertex="1">
          <mxGeometry x="530" y="390" width="60" height="60" as="geometry" />
        </mxCell>
        <mxCell id="8mEYjzqc0WgLYwDRPM7n-18" value="" style="verticalLabelPosition=bottom;verticalAlign=top;html=1;shape=offPageConnector;rounded=0;size=0.5;" parent="1" vertex="1">
          <mxGeometry x="690" y="390" width="60" height="60" as="geometry" />
        </mxCell>
        <mxCell id="8mEYjzqc0WgLYwDRPM7n-22" value="Registrasi" style="text;html=1;align=center;verticalAlign=middle;resizable=0;points=[];autosize=1;strokeColor=none;fillColor=none;" parent="1" vertex="1">
          <mxGeometry x="520" y="400" width="80" height="30" as="geometry" />
        </mxCell>
        <mxCell id="8mEYjzqc0WgLYwDRPM7n-23" value="Login" style="text;html=1;align=center;verticalAlign=middle;resizable=0;points=[];autosize=1;strokeColor=none;fillColor=none;" parent="1" vertex="1">
          <mxGeometry x="695" y="400" width="50" height="30" as="geometry" />
        </mxCell>
        <mxCell id="8mEYjzqc0WgLYwDRPM7n-40" style="edgeStyle=orthogonalEdgeStyle;rounded=0;orthogonalLoop=1;jettySize=auto;html=1;entryX=1;entryY=0.5;entryDx=0;entryDy=0;" parent="1" source="8mEYjzqc0WgLYwDRPM7n-26" target="8mEYjzqc0WgLYwDRPM7n-2" edge="1">
          <mxGeometry relative="1" as="geometry">
            <Array as="points">
              <mxPoint x="1030" y="170" />
            </Array>
          </mxGeometry>
        </mxCell>
        <mxCell id="8mEYjzqc0WgLYwDRPM7n-26" value="Pilihan Tidak&amp;nbsp;&lt;div&gt;Valid&lt;/div&gt;" style="shape=parallelogram;html=1;strokeWidth=2;perimeter=parallelogramPerimeter;whiteSpace=wrap;rounded=1;arcSize=12;size=0.23;" parent="1" vertex="1">
          <mxGeometry x="960" y="280" width="120" height="60" as="geometry" />
        </mxCell>
        <mxCell id="8mEYjzqc0WgLYwDRPM7n-28" value="" style="endArrow=classic;html=1;rounded=0;" parent="1" edge="1">
          <mxGeometry width="50" height="50" relative="1" as="geometry">
            <mxPoint x="1030" y="330" as="sourcePoint" />
            <mxPoint x="1090" y="330" as="targetPoint" />
          </mxGeometry>
        </mxCell>
        <mxCell id="8mEYjzqc0WgLYwDRPM7n-41" value="Selesai" style="strokeWidth=2;html=1;shape=mxgraph.flowchart.start_1;whiteSpace=wrap;" parent="1" vertex="1">
          <mxGeometry x="817" y="400" width="100" height="60" as="geometry" />
        </mxCell>
        <mxCell id="8mEYjzqc0WgLYwDRPM7n-45" style="edgeStyle=orthogonalEdgeStyle;rounded=0;orthogonalLoop=1;jettySize=auto;html=1;entryX=0.5;entryY=0;entryDx=0;entryDy=0;entryPerimeter=0;" parent="1" source="8mEYjzqc0WgLYwDRPM7n-14" target="8mEYjzqc0WgLYwDRPM7n-41" edge="1">
          <mxGeometry relative="1" as="geometry" />
        </mxCell>
        <mxCell id="R-cTZTO7tqke21ejqiwu-5" value="Yes" style="edgeLabel;html=1;align=center;verticalAlign=middle;resizable=0;points=[];" vertex="1" connectable="0" parent="8mEYjzqc0WgLYwDRPM7n-45">
          <mxGeometry x="-0.1763" relative="1" as="geometry">
            <mxPoint as="offset" />
          </mxGeometry>
        </mxCell>
      </root>
    </mxGraphModel>
  </diagram>
  <diagram id="4BMGxVfVt8Ey7SXa1ZiR" name="Registrasi">
    <mxGraphModel dx="-658" dy="697" grid="1" gridSize="10" guides="1" tooltips="1" connect="1" arrows="1" fold="1" page="1" pageScale="1" pageWidth="827" pageHeight="1169" math="0" shadow="0">
      <root>
        <mxCell id="0" />
        <mxCell id="1" parent="0" />
        <mxCell id="4KjW63GgcPd1cQ1uUD3R-37" style="edgeStyle=orthogonalEdgeStyle;rounded=0;orthogonalLoop=1;jettySize=auto;html=1;labelBackgroundColor=none;fontColor=default;" parent="1" source="4KjW63GgcPd1cQ1uUD3R-38" target="4KjW63GgcPd1cQ1uUD3R-40" edge="1">
          <mxGeometry relative="1" as="geometry" />
        </mxCell>
        <mxCell id="4KjW63GgcPd1cQ1uUD3R-38" value="&quot;===REGISTRASI===&lt;div&gt;Username :&lt;/div&gt;&lt;div&gt;Password :&lt;/div&gt;&lt;div&gt;Alamat :&lt;/div&gt;" style="shape=parallelogram;perimeter=parallelogramPerimeter;whiteSpace=wrap;html=1;fixedSize=1;labelBackgroundColor=none;" parent="1" vertex="1">
          <mxGeometry x="2096" y="190" width="236" height="70" as="geometry" />
        </mxCell>
        <mxCell id="4KjW63GgcPd1cQ1uUD3R-39" style="edgeStyle=orthogonalEdgeStyle;rounded=0;orthogonalLoop=1;jettySize=auto;html=1;entryX=0.5;entryY=0;entryDx=0;entryDy=0;labelBackgroundColor=none;fontColor=default;" parent="1" source="4KjW63GgcPd1cQ1uUD3R-40" target="4KjW63GgcPd1cQ1uUD3R-43" edge="1">
          <mxGeometry relative="1" as="geometry" />
        </mxCell>
        <mxCell id="4KjW63GgcPd1cQ1uUD3R-40" value="Input Username,&lt;div&gt;&amp;nbsp;Password dan Alamat&lt;/div&gt;" style="shape=parallelogram;perimeter=parallelogramPerimeter;whiteSpace=wrap;html=1;fixedSize=1;labelBackgroundColor=none;" parent="1" vertex="1">
          <mxGeometry x="2140" y="350" width="148" height="50" as="geometry" />
        </mxCell>
        <mxCell id="4KjW63GgcPd1cQ1uUD3R-41" style="edgeStyle=orthogonalEdgeStyle;rounded=0;orthogonalLoop=1;jettySize=auto;html=1;entryX=0.5;entryY=0;entryDx=0;entryDy=0;labelBackgroundColor=none;fontColor=default;" parent="1" source="4KjW63GgcPd1cQ1uUD3R-43" target="4KjW63GgcPd1cQ1uUD3R-45" edge="1">
          <mxGeometry relative="1" as="geometry" />
        </mxCell>
        <mxCell id="xvuOKzwhErLoE6IsodZq-2" value="Yes" style="edgeLabel;html=1;align=center;verticalAlign=middle;resizable=0;points=[];" vertex="1" connectable="0" parent="4KjW63GgcPd1cQ1uUD3R-41">
          <mxGeometry x="-0.3355" y="1" relative="1" as="geometry">
            <mxPoint as="offset" />
          </mxGeometry>
        </mxCell>
        <mxCell id="4KjW63GgcPd1cQ1uUD3R-42" style="edgeStyle=orthogonalEdgeStyle;rounded=0;orthogonalLoop=1;jettySize=auto;html=1;labelBackgroundColor=none;fontColor=default;" parent="1" source="4KjW63GgcPd1cQ1uUD3R-43" target="4KjW63GgcPd1cQ1uUD3R-47" edge="1">
          <mxGeometry relative="1" as="geometry" />
        </mxCell>
        <mxCell id="xvuOKzwhErLoE6IsodZq-1" value="No" style="edgeLabel;html=1;align=center;verticalAlign=middle;resizable=0;points=[];" vertex="1" connectable="0" parent="4KjW63GgcPd1cQ1uUD3R-42">
          <mxGeometry x="-0.4488" relative="1" as="geometry">
            <mxPoint as="offset" />
          </mxGeometry>
        </mxCell>
        <mxCell id="4KjW63GgcPd1cQ1uUD3R-43" value="username not in users" style="rhombus;whiteSpace=wrap;html=1;labelBackgroundColor=none;" parent="1" vertex="1">
          <mxGeometry x="2161" y="455" width="106" height="100" as="geometry" />
        </mxCell>
        <mxCell id="4KjW63GgcPd1cQ1uUD3R-44" style="edgeStyle=orthogonalEdgeStyle;rounded=0;orthogonalLoop=1;jettySize=auto;html=1;labelBackgroundColor=none;fontColor=default;" parent="1" source="4KjW63GgcPd1cQ1uUD3R-45" target="4KjW63GgcPd1cQ1uUD3R-54" edge="1">
          <mxGeometry relative="1" as="geometry">
            <Array as="points">
              <mxPoint x="2429" y="810" />
            </Array>
            <mxPoint x="2270" y="1010" as="targetPoint" />
          </mxGeometry>
        </mxCell>
        <mxCell id="4KjW63GgcPd1cQ1uUD3R-45" value="&quot;Registrasi berhasil {username} telah ditambahkan sebagai pengguna biasa.&amp;nbsp;&lt;div&gt;Silahkan Login&quot;&lt;/div&gt;" style="shape=parallelogram;perimeter=parallelogramPerimeter;whiteSpace=wrap;html=1;fixedSize=1;labelBackgroundColor=none;" parent="1" vertex="1">
          <mxGeometry x="2360" y="585" width="138" height="95" as="geometry" />
        </mxCell>
        <mxCell id="4KjW63GgcPd1cQ1uUD3R-59" style="edgeStyle=orthogonalEdgeStyle;rounded=0;orthogonalLoop=1;jettySize=auto;html=1;entryX=0;entryY=0.25;entryDx=0;entryDy=0;" parent="1" source="4KjW63GgcPd1cQ1uUD3R-47" target="4KjW63GgcPd1cQ1uUD3R-54" edge="1">
          <mxGeometry relative="1" as="geometry">
            <Array as="points">
              <mxPoint x="2014" y="810" />
            </Array>
          </mxGeometry>
        </mxCell>
        <mxCell id="4KjW63GgcPd1cQ1uUD3R-47" value="&quot;Username telah terdaftar!!&quot;" style="shape=parallelogram;perimeter=parallelogramPerimeter;whiteSpace=wrap;html=1;fixedSize=1;labelBackgroundColor=none;" parent="1" vertex="1">
          <mxGeometry x="1950" y="600" width="128" height="65" as="geometry" />
        </mxCell>
        <mxCell id="4KjW63GgcPd1cQ1uUD3R-50" value="" style="edgeStyle=none;orthogonalLoop=1;jettySize=auto;html=1;rounded=0;labelBackgroundColor=none;fontColor=default;" parent="1" edge="1">
          <mxGeometry width="100" relative="1" as="geometry">
            <mxPoint x="2350" y="590" as="sourcePoint" />
            <mxPoint x="2400" y="590" as="targetPoint" />
            <Array as="points" />
          </mxGeometry>
        </mxCell>
        <mxCell id="4KjW63GgcPd1cQ1uUD3R-51" value="" style="edgeStyle=none;orthogonalLoop=1;jettySize=auto;html=1;rounded=0;labelBackgroundColor=none;fontColor=default;" parent="1" edge="1">
          <mxGeometry width="100" relative="1" as="geometry">
            <mxPoint x="1940" y="610" as="sourcePoint" />
            <mxPoint x="1986" y="610" as="targetPoint" />
            <Array as="points" />
          </mxGeometry>
        </mxCell>
        <mxCell id="4KjW63GgcPd1cQ1uUD3R-52" value="" style="edgeStyle=none;orthogonalLoop=1;jettySize=auto;html=1;rounded=0;exitX=0.928;exitY=0.857;exitDx=0;exitDy=0;exitPerimeter=0;labelBackgroundColor=none;fontColor=default;" parent="1" source="4KjW63GgcPd1cQ1uUD3R-38" edge="1">
          <mxGeometry width="100" relative="1" as="geometry">
            <mxPoint x="2320" y="250" as="sourcePoint" />
            <mxPoint x="2370" y="250" as="targetPoint" />
            <Array as="points">
              <mxPoint x="2300" y="250" />
            </Array>
          </mxGeometry>
        </mxCell>
        <mxCell id="4KjW63GgcPd1cQ1uUD3R-53" style="edgeStyle=orthogonalEdgeStyle;rounded=0;orthogonalLoop=1;jettySize=auto;html=1;entryX=0.5;entryY=0;entryDx=0;entryDy=0;labelBackgroundColor=none;fontColor=default;" parent="1" target="4KjW63GgcPd1cQ1uUD3R-38" edge="1">
          <mxGeometry relative="1" as="geometry">
            <Array as="points">
              <mxPoint x="2214" y="90" />
            </Array>
            <mxPoint x="2214" y="80" as="sourcePoint" />
          </mxGeometry>
        </mxCell>
        <mxCell id="4KjW63GgcPd1cQ1uUD3R-54" value="" style="verticalLabelPosition=bottom;verticalAlign=top;html=1;shape=offPageConnector;rounded=0;size=0.5;labelBackgroundColor=none;" parent="1" vertex="1">
          <mxGeometry x="2169" y="790" width="90" height="80" as="geometry" />
        </mxCell>
        <mxCell id="4KjW63GgcPd1cQ1uUD3R-55" value="" style="endArrow=classic;html=1;rounded=0;" parent="1" edge="1">
          <mxGeometry width="50" height="50" relative="1" as="geometry">
            <mxPoint x="2124" y="358" as="sourcePoint" />
            <mxPoint x="2184" y="358" as="targetPoint" />
            <Array as="points">
              <mxPoint x="2164" y="358" />
            </Array>
          </mxGeometry>
        </mxCell>
        <mxCell id="4KjW63GgcPd1cQ1uUD3R-56" value="" style="verticalLabelPosition=bottom;verticalAlign=top;html=1;shape=offPageConnector;rounded=0;size=0.5;" parent="1" vertex="1">
          <mxGeometry x="2184" y="20" width="60" height="60" as="geometry" />
        </mxCell>
        <mxCell id="4KjW63GgcPd1cQ1uUD3R-57" value="Registrasi" style="text;html=1;align=center;verticalAlign=middle;resizable=0;points=[];autosize=1;strokeColor=none;fillColor=none;" parent="1" vertex="1">
          <mxGeometry x="2174" y="30" width="80" height="30" as="geometry" />
        </mxCell>
        <mxCell id="GumetweKsyKCjBb0cIuh-1" value="Pilihan Menu" style="text;html=1;align=center;verticalAlign=middle;resizable=0;points=[];autosize=1;strokeColor=none;fillColor=none;" parent="1" vertex="1">
          <mxGeometry x="2169" y="800" width="90" height="30" as="geometry" />
        </mxCell>
      </root>
    </mxGraphModel>
  </diagram>
  <diagram id="SonDUeylt8EdaTDd4hDl" name="Login">
    <mxGraphModel dx="1720" dy="1204" grid="1" gridSize="10" guides="1" tooltips="1" connect="1" arrows="1" fold="1" page="1" pageScale="1" pageWidth="827" pageHeight="1169" math="0" shadow="0">
      <root>
        <mxCell id="0" />
        <mxCell id="1" parent="0" />
        <mxCell id="EIjFwtyBnqrGqCo5eVuW-4" value="" style="edgeStyle=orthogonalEdgeStyle;rounded=0;orthogonalLoop=1;jettySize=auto;html=1;" edge="1" parent="1" source="fIR_gDikbbPsc9TXOGuO-2" target="EIjFwtyBnqrGqCo5eVuW-3">
          <mxGeometry relative="1" as="geometry" />
        </mxCell>
        <mxCell id="fIR_gDikbbPsc9TXOGuO-2" value="&lt;font style=&quot;font-size: 10px;&quot;&gt;Login dengan Input&lt;/font&gt;&lt;div&gt;&lt;span style=&quot;font-size: 10px; background-color: light-dark(#ffffff, var(--ge-dark-color, #121212)); color: light-dark(rgb(0, 0, 0), rgb(255, 255, 255));&quot;&gt;Username dan&lt;/span&gt;&lt;/div&gt;&lt;div&gt;&lt;span style=&quot;font-size: 10px; background-color: light-dark(#ffffff, var(--ge-dark-color, #121212)); color: light-dark(rgb(0, 0, 0), rgb(255, 255, 255));&quot;&gt;Password&lt;/span&gt;&lt;/div&gt;" style="shape=parallelogram;perimeter=parallelogramPerimeter;whiteSpace=wrap;html=1;fixedSize=1;strokeWidth=2;labelBackgroundColor=default;" parent="1" vertex="1">
          <mxGeometry x="330" y="210" width="140" height="70" as="geometry" />
        </mxCell>
        <mxCell id="fIR_gDikbbPsc9TXOGuO-6" value="" style="endArrow=classic;html=1;rounded=0;" parent="1" edge="1">
          <mxGeometry width="50" height="50" relative="1" as="geometry">
            <mxPoint x="300" y="220" as="sourcePoint" />
            <mxPoint x="360" y="220" as="targetPoint" />
          </mxGeometry>
        </mxCell>
        <mxCell id="fIR_gDikbbPsc9TXOGuO-7" value="" style="edgeStyle=orthogonalEdgeStyle;rounded=0;orthogonalLoop=1;jettySize=auto;html=1;" parent="1" source="fIR_gDikbbPsc9TXOGuO-8" target="fIR_gDikbbPsc9TXOGuO-13" edge="1">
          <mxGeometry relative="1" as="geometry" />
        </mxCell>
        <mxCell id="fIR_gDikbbPsc9TXOGuO-8" value="Batas Login + 1" style="whiteSpace=wrap;html=1;strokeWidth=2;labelBackgroundColor=default;" parent="1" vertex="1">
          <mxGeometry x="340" y="521.5" width="120" height="60" as="geometry" />
        </mxCell>
        <mxCell id="fIR_gDikbbPsc9TXOGuO-9" value="" style="edgeStyle=orthogonalEdgeStyle;rounded=0;orthogonalLoop=1;jettySize=auto;html=1;" parent="1" source="fIR_gDikbbPsc9TXOGuO-10" edge="1">
          <mxGeometry relative="1" as="geometry">
            <mxPoint x="720" y="400.6" as="targetPoint" />
          </mxGeometry>
        </mxCell>
        <mxCell id="fIR_gDikbbPsc9TXOGuO-10" value="Login Berhasil" style="shape=parallelogram;perimeter=parallelogramPerimeter;whiteSpace=wrap;html=1;fixedSize=1;strokeWidth=2;labelBackgroundColor=default;" parent="1" vertex="1">
          <mxGeometry x="530" y="370.5" width="120" height="60" as="geometry" />
        </mxCell>
        <mxCell id="fIR_gDikbbPsc9TXOGuO-11" value="" style="edgeStyle=orthogonalEdgeStyle;rounded=0;orthogonalLoop=1;jettySize=auto;html=1;" parent="1" edge="1">
          <mxGeometry relative="1" as="geometry">
            <mxPoint x="400" y="709.5" as="sourcePoint" />
            <mxPoint x="400" y="789.5" as="targetPoint" />
          </mxGeometry>
        </mxCell>
        <mxCell id="EIjFwtyBnqrGqCo5eVuW-23" value="Yes" style="edgeLabel;html=1;align=center;verticalAlign=middle;resizable=0;points=[];" vertex="1" connectable="0" parent="fIR_gDikbbPsc9TXOGuO-11">
          <mxGeometry x="-0.1875" relative="1" as="geometry">
            <mxPoint y="8" as="offset" />
          </mxGeometry>
        </mxCell>
        <mxCell id="fIR_gDikbbPsc9TXOGuO-12" style="edgeStyle=orthogonalEdgeStyle;rounded=0;orthogonalLoop=1;jettySize=auto;html=1;exitX=0;exitY=0.5;exitDx=0;exitDy=0;" parent="1" source="fIR_gDikbbPsc9TXOGuO-13" target="fIR_gDikbbPsc9TXOGuO-2" edge="1">
          <mxGeometry relative="1" as="geometry">
            <Array as="points">
              <mxPoint x="280" y="678" />
              <mxPoint x="280" y="245" />
            </Array>
          </mxGeometry>
        </mxCell>
        <mxCell id="EIjFwtyBnqrGqCo5eVuW-22" value="No" style="edgeLabel;html=1;align=center;verticalAlign=middle;resizable=0;points=[];" vertex="1" connectable="0" parent="fIR_gDikbbPsc9TXOGuO-12">
          <mxGeometry x="-0.779" relative="1" as="geometry">
            <mxPoint x="31" as="offset" />
          </mxGeometry>
        </mxCell>
        <mxCell id="fIR_gDikbbPsc9TXOGuO-13" value="&lt;font style=&quot;font-size: 9px;&quot;&gt;Batas Login == 3&lt;/font&gt;" style="rhombus;whiteSpace=wrap;html=1;strokeWidth=2;labelBackgroundColor=default;" parent="1" vertex="1">
          <mxGeometry x="355" y="637" width="90" height="82.5" as="geometry" />
        </mxCell>
        <mxCell id="fIR_gDikbbPsc9TXOGuO-14" value="" style="edgeStyle=orthogonalEdgeStyle;rounded=0;orthogonalLoop=1;jettySize=auto;html=1;" parent="1" edge="1">
          <mxGeometry relative="1" as="geometry">
            <mxPoint x="400" y="832" as="sourcePoint" />
            <mxPoint x="400" y="902" as="targetPoint" />
          </mxGeometry>
        </mxCell>
        <mxCell id="fIR_gDikbbPsc9TXOGuO-15" value="" style="shape=parallelogram;perimeter=parallelogramPerimeter;whiteSpace=wrap;html=1;fixedSize=1;strokeWidth=2;labelBackgroundColor=default;" parent="1" vertex="1">
          <mxGeometry x="340" y="788.5" width="120" height="57.5" as="geometry" />
        </mxCell>
        <mxCell id="fIR_gDikbbPsc9TXOGuO-16" value="Selesai" style="ellipse;whiteSpace=wrap;html=1;" parent="1" vertex="1">
          <mxGeometry x="350" y="902" width="100" height="70" as="geometry" />
        </mxCell>
        <mxCell id="fIR_gDikbbPsc9TXOGuO-23" value="" style="edgeStyle=orthogonalEdgeStyle;rounded=0;orthogonalLoop=1;jettySize=auto;html=1;" parent="1" source="fIR_gDikbbPsc9TXOGuO-22" target="fIR_gDikbbPsc9TXOGuO-2" edge="1">
          <mxGeometry relative="1" as="geometry" />
        </mxCell>
        <mxCell id="fIR_gDikbbPsc9TXOGuO-22" value="" style="verticalLabelPosition=bottom;verticalAlign=top;html=1;shape=offPageConnector;rounded=0;size=0.5;" parent="1" vertex="1">
          <mxGeometry x="370" y="40" width="60" height="60" as="geometry" />
        </mxCell>
        <mxCell id="BzKu4ZSOftm57XBxs96W-1" value="Login" style="text;html=1;align=center;verticalAlign=middle;resizable=0;points=[];autosize=1;strokeColor=none;fillColor=none;" parent="1" vertex="1">
          <mxGeometry x="374" y="55" width="50" height="30" as="geometry" />
        </mxCell>
        <mxCell id="Q7p0L09a5T8ur6GjJPmd-2" value="" style="edgeStyle=orthogonalEdgeStyle;rounded=0;orthogonalLoop=1;jettySize=auto;html=1;" parent="1" source="TFkXBZradC-4K2jK87xM-1" target="Q7p0L09a5T8ur6GjJPmd-1" edge="1">
          <mxGeometry relative="1" as="geometry" />
        </mxCell>
        <mxCell id="EIjFwtyBnqrGqCo5eVuW-18" value="No" style="edgeLabel;html=1;align=center;verticalAlign=middle;resizable=0;points=[];" vertex="1" connectable="0" parent="Q7p0L09a5T8ur6GjJPmd-2">
          <mxGeometry x="-0.0091" relative="1" as="geometry">
            <mxPoint y="1" as="offset" />
          </mxGeometry>
        </mxCell>
        <mxCell id="wOnp4WFjLdVs3_2n9qA1-3" value="" style="edgeStyle=orthogonalEdgeStyle;rounded=0;orthogonalLoop=1;jettySize=auto;html=1;" parent="1" source="TFkXBZradC-4K2jK87xM-1" target="wOnp4WFjLdVs3_2n9qA1-1" edge="1">
          <mxGeometry relative="1" as="geometry" />
        </mxCell>
        <mxCell id="EIjFwtyBnqrGqCo5eVuW-19" value="Yes" style="edgeLabel;html=1;align=center;verticalAlign=middle;resizable=0;points=[];" vertex="1" connectable="0" parent="wOnp4WFjLdVs3_2n9qA1-3">
          <mxGeometry x="-0.1869" relative="1" as="geometry">
            <mxPoint as="offset" />
          </mxGeometry>
        </mxCell>
        <mxCell id="TFkXBZradC-4K2jK87xM-1" value="Login Sebagai Admin" style="strokeWidth=2;html=1;shape=mxgraph.flowchart.decision;whiteSpace=wrap;" parent="1" vertex="1">
          <mxGeometry x="720" y="350.5" width="100" height="100" as="geometry" />
        </mxCell>
        <mxCell id="wOnp4WFjLdVs3_2n9qA1-4" value="" style="edgeStyle=orthogonalEdgeStyle;rounded=0;orthogonalLoop=1;jettySize=auto;html=1;" parent="1" source="Q7p0L09a5T8ur6GjJPmd-1" target="wOnp4WFjLdVs3_2n9qA1-2" edge="1">
          <mxGeometry relative="1" as="geometry" />
        </mxCell>
        <mxCell id="EIjFwtyBnqrGqCo5eVuW-17" value="Yes" style="edgeLabel;html=1;align=center;verticalAlign=middle;resizable=0;points=[];" vertex="1" connectable="0" parent="wOnp4WFjLdVs3_2n9qA1-4">
          <mxGeometry x="-0.2148" y="1" relative="1" as="geometry">
            <mxPoint as="offset" />
          </mxGeometry>
        </mxCell>
        <mxCell id="mR3QJI13V2G94wsCucCq-1" style="edgeStyle=orthogonalEdgeStyle;rounded=0;orthogonalLoop=1;jettySize=auto;html=1;entryX=1;entryY=0.5;entryDx=0;entryDy=0;exitX=1;exitY=0.5;exitDx=0;exitDy=0;exitPerimeter=0;" parent="1" source="Q7p0L09a5T8ur6GjJPmd-1" target="fIR_gDikbbPsc9TXOGuO-16" edge="1">
          <mxGeometry relative="1" as="geometry">
            <Array as="points">
              <mxPoint x="1040" y="400" />
              <mxPoint x="1040" y="937" />
            </Array>
          </mxGeometry>
        </mxCell>
        <mxCell id="EIjFwtyBnqrGqCo5eVuW-16" value="No" style="edgeLabel;html=1;align=center;verticalAlign=middle;resizable=0;points=[];" vertex="1" connectable="0" parent="mR3QJI13V2G94wsCucCq-1">
          <mxGeometry x="-0.9658" relative="1" as="geometry">
            <mxPoint as="offset" />
          </mxGeometry>
        </mxCell>
        <mxCell id="Q7p0L09a5T8ur6GjJPmd-1" value="Login Sebagai&amp;nbsp;&lt;div&gt;User&amp;nbsp;&lt;/div&gt;" style="strokeWidth=2;html=1;shape=mxgraph.flowchart.decision;whiteSpace=wrap;" parent="1" vertex="1">
          <mxGeometry x="900" y="350.5" width="100" height="100" as="geometry" />
        </mxCell>
        <mxCell id="wOnp4WFjLdVs3_2n9qA1-1" value="" style="verticalLabelPosition=bottom;verticalAlign=top;html=1;shape=offPageConnector;rounded=0;size=0.5;" parent="1" vertex="1">
          <mxGeometry x="730" y="513" width="80" height="80" as="geometry" />
        </mxCell>
        <mxCell id="wOnp4WFjLdVs3_2n9qA1-2" value="" style="verticalLabelPosition=bottom;verticalAlign=top;html=1;shape=offPageConnector;rounded=0;size=0.5;" parent="1" vertex="1">
          <mxGeometry x="907.5" y="518" width="85" height="80" as="geometry" />
        </mxCell>
        <mxCell id="wOnp4WFjLdVs3_2n9qA1-5" value="Menu Admin" style="text;html=1;align=center;verticalAlign=middle;resizable=0;points=[];autosize=1;strokeColor=none;fillColor=none;" parent="1" vertex="1">
          <mxGeometry x="725" y="523" width="90" height="30" as="geometry" />
        </mxCell>
        <mxCell id="wOnp4WFjLdVs3_2n9qA1-7" value="Menu User" style="text;html=1;align=center;verticalAlign=middle;resizable=0;points=[];autosize=1;strokeColor=none;fillColor=none;" parent="1" vertex="1">
          <mxGeometry x="912.5" y="533" width="80" height="30" as="geometry" />
        </mxCell>
        <mxCell id="EIjFwtyBnqrGqCo5eVuW-5" value="" style="edgeStyle=orthogonalEdgeStyle;rounded=0;orthogonalLoop=1;jettySize=auto;html=1;" edge="1" parent="1" source="EIjFwtyBnqrGqCo5eVuW-3" target="fIR_gDikbbPsc9TXOGuO-8">
          <mxGeometry relative="1" as="geometry" />
        </mxCell>
        <mxCell id="EIjFwtyBnqrGqCo5eVuW-21" value="No" style="edgeLabel;html=1;align=center;verticalAlign=middle;resizable=0;points=[];" vertex="1" connectable="0" parent="EIjFwtyBnqrGqCo5eVuW-5">
          <mxGeometry x="-0.2902" relative="1" as="geometry">
            <mxPoint as="offset" />
          </mxGeometry>
        </mxCell>
        <mxCell id="EIjFwtyBnqrGqCo5eVuW-10" style="edgeStyle=orthogonalEdgeStyle;rounded=0;orthogonalLoop=1;jettySize=auto;html=1;exitX=1;exitY=0.5;exitDx=0;exitDy=0;entryX=0;entryY=0.5;entryDx=0;entryDy=0;" edge="1" parent="1" source="EIjFwtyBnqrGqCo5eVuW-3" target="fIR_gDikbbPsc9TXOGuO-10">
          <mxGeometry relative="1" as="geometry" />
        </mxCell>
        <mxCell id="EIjFwtyBnqrGqCo5eVuW-20" value="Yes" style="edgeLabel;html=1;align=center;verticalAlign=middle;resizable=0;points=[];" vertex="1" connectable="0" parent="EIjFwtyBnqrGqCo5eVuW-10">
          <mxGeometry x="-0.0351" relative="1" as="geometry">
            <mxPoint as="offset" />
          </mxGeometry>
        </mxCell>
        <mxCell id="EIjFwtyBnqrGqCo5eVuW-3" value="" style="rhombus;whiteSpace=wrap;html=1;strokeWidth=2;labelBackgroundColor=default;" vertex="1" parent="1">
          <mxGeometry x="335" y="340" width="130" height="120" as="geometry" />
        </mxCell>
        <mxCell id="EIjFwtyBnqrGqCo5eVuW-9" value="&lt;span style=&quot;background-color: rgb(255, 255, 255);&quot;&gt;Cek Input Username == user&lt;/span&gt;&lt;div&gt;input Password == Pw&lt;/div&gt;" style="text;html=1;align=center;verticalAlign=middle;whiteSpace=wrap;rounded=0;" vertex="1" parent="1">
          <mxGeometry x="359.25" y="373.5" width="85.75" height="56.5" as="geometry" />
        </mxCell>
        <mxCell id="EIjFwtyBnqrGqCo5eVuW-15" value="&lt;span style=&quot;background-color: rgb(255, 255, 255);&quot;&gt;Gagal Login&amp;nbsp;&lt;/span&gt;&lt;div&gt;Program Berhenti&lt;/div&gt;" style="text;html=1;align=center;verticalAlign=middle;whiteSpace=wrap;rounded=0;" vertex="1" parent="1">
          <mxGeometry x="343.13" y="797.25" width="110" height="40" as="geometry" />
        </mxCell>
      </root>
    </mxGraphModel>
  </diagram>
  <diagram id="v9xt7HOa1xvGFUhl-OHc" name="Menu Admin">
    <mxGraphModel dx="1351" dy="946" grid="1" gridSize="10" guides="1" tooltips="1" connect="1" arrows="1" fold="1" page="1" pageScale="1" pageWidth="827" pageHeight="1169" math="0" shadow="0">
      <root>
        <mxCell id="0" />
        <mxCell id="1" parent="0" />
        <mxCell id="RXjEYfC67qReFsxiy0O_-1" value="" style="edgeStyle=orthogonalEdgeStyle;rounded=0;orthogonalLoop=1;jettySize=auto;html=1;" parent="1" source="RXjEYfC67qReFsxiy0O_-2" target="RXjEYfC67qReFsxiy0O_-4" edge="1">
          <mxGeometry relative="1" as="geometry" />
        </mxCell>
        <mxCell id="RXjEYfC67qReFsxiy0O_-2" value="" style="verticalLabelPosition=bottom;verticalAlign=top;html=1;shape=offPageConnector;rounded=0;size=0.49999999999999994;" parent="1" vertex="1">
          <mxGeometry x="280" y="30" width="60" height="60" as="geometry" />
        </mxCell>
        <mxCell id="RXjEYfC67qReFsxiy0O_-3" value="" style="edgeStyle=orthogonalEdgeStyle;rounded=0;orthogonalLoop=1;jettySize=auto;html=1;" parent="1" source="RXjEYfC67qReFsxiy0O_-4" target="RXjEYfC67qReFsxiy0O_-8" edge="1">
          <mxGeometry relative="1" as="geometry" />
        </mxCell>
        <mxCell id="RXjEYfC67qReFsxiy0O_-4" value="&lt;div&gt;&lt;br&gt;&lt;/div&gt;Tampilan Menu Admin" style="shape=parallelogram;perimeter=parallelogramPerimeter;whiteSpace=wrap;html=1;fixedSize=1;verticalAlign=top;rounded=0;size=20;" parent="1" vertex="1">
          <mxGeometry x="250" y="140" width="120" height="60" as="geometry" />
        </mxCell>
        <mxCell id="RXjEYfC67qReFsxiy0O_-5" value="" style="endArrow=classic;html=1;rounded=0;" parent="1" edge="1">
          <mxGeometry width="50" height="50" relative="1" as="geometry">
            <mxPoint x="210" y="150" as="sourcePoint" />
            <mxPoint x="280" y="150" as="targetPoint" />
          </mxGeometry>
        </mxCell>
        <mxCell id="RXjEYfC67qReFsxiy0O_-6" value="" style="edgeStyle=orthogonalEdgeStyle;rounded=0;orthogonalLoop=1;jettySize=auto;html=1;" parent="1" source="RXjEYfC67qReFsxiy0O_-8" edge="1">
          <mxGeometry relative="1" as="geometry">
            <mxPoint x="410" y="286" as="targetPoint" />
          </mxGeometry>
        </mxCell>
        <mxCell id="QH1ghsu3Y_A7_6N2Pi_0-13" value="Yes" style="edgeLabel;html=1;align=center;verticalAlign=middle;resizable=0;points=[];" vertex="1" connectable="0" parent="RXjEYfC67qReFsxiy0O_-6">
          <mxGeometry x="-0.261" relative="1" as="geometry">
            <mxPoint as="offset" />
          </mxGeometry>
        </mxCell>
        <mxCell id="RXjEYfC67qReFsxiy0O_-7" value="" style="edgeStyle=orthogonalEdgeStyle;rounded=0;orthogonalLoop=1;jettySize=auto;html=1;" parent="1" source="RXjEYfC67qReFsxiy0O_-8" target="RXjEYfC67qReFsxiy0O_-13" edge="1">
          <mxGeometry relative="1" as="geometry" />
        </mxCell>
        <mxCell id="QH1ghsu3Y_A7_6N2Pi_0-14" value="No" style="edgeLabel;html=1;align=center;verticalAlign=middle;resizable=0;points=[];" vertex="1" connectable="0" parent="RXjEYfC67qReFsxiy0O_-7">
          <mxGeometry x="-0.4446" relative="1" as="geometry">
            <mxPoint x="-1" y="7" as="offset" />
          </mxGeometry>
        </mxCell>
        <mxCell id="RXjEYfC67qReFsxiy0O_-8" value="&lt;div&gt;&lt;br&gt;&lt;/div&gt;&lt;div&gt;Tambah Pegawai&lt;/div&gt;" style="rhombus;whiteSpace=wrap;html=1;verticalAlign=top;rounded=0;" parent="1" vertex="1">
          <mxGeometry x="270" y="246" width="80" height="80" as="geometry" />
        </mxCell>
        <mxCell id="RXjEYfC67qReFsxiy0O_-11" value="" style="edgeStyle=orthogonalEdgeStyle;rounded=0;orthogonalLoop=1;jettySize=auto;html=1;" parent="1" source="RXjEYfC67qReFsxiy0O_-13" edge="1">
          <mxGeometry relative="1" as="geometry">
            <mxPoint x="410" y="426" as="targetPoint" />
          </mxGeometry>
        </mxCell>
        <mxCell id="QH1ghsu3Y_A7_6N2Pi_0-12" value="Yes" style="edgeLabel;html=1;align=center;verticalAlign=middle;resizable=0;points=[];" vertex="1" connectable="0" parent="RXjEYfC67qReFsxiy0O_-11">
          <mxGeometry x="-0.3082" y="-1" relative="1" as="geometry">
            <mxPoint x="9" y="-1" as="offset" />
          </mxGeometry>
        </mxCell>
        <mxCell id="RXjEYfC67qReFsxiy0O_-12" value="" style="edgeStyle=orthogonalEdgeStyle;rounded=0;orthogonalLoop=1;jettySize=auto;html=1;" parent="1" source="RXjEYfC67qReFsxiy0O_-13" target="RXjEYfC67qReFsxiy0O_-16" edge="1">
          <mxGeometry relative="1" as="geometry" />
        </mxCell>
        <mxCell id="QH1ghsu3Y_A7_6N2Pi_0-11" value="No" style="edgeLabel;html=1;align=center;verticalAlign=middle;resizable=0;points=[];" vertex="1" connectable="0" parent="RXjEYfC67qReFsxiy0O_-12">
          <mxGeometry x="-0.5339" y="-1" relative="1" as="geometry">
            <mxPoint x="1" y="14" as="offset" />
          </mxGeometry>
        </mxCell>
        <mxCell id="RXjEYfC67qReFsxiy0O_-13" value="" style="rhombus;whiteSpace=wrap;html=1;verticalAlign=top;rounded=0;" parent="1" vertex="1">
          <mxGeometry x="270" y="386" width="80" height="80" as="geometry" />
        </mxCell>
        <mxCell id="RXjEYfC67qReFsxiy0O_-14" value="" style="edgeStyle=orthogonalEdgeStyle;rounded=0;orthogonalLoop=1;jettySize=auto;html=1;" parent="1" source="RXjEYfC67qReFsxiy0O_-16" edge="1">
          <mxGeometry relative="1" as="geometry">
            <mxPoint x="410" y="570" as="targetPoint" />
          </mxGeometry>
        </mxCell>
        <mxCell id="QH1ghsu3Y_A7_6N2Pi_0-10" value="Yes" style="edgeLabel;html=1;align=center;verticalAlign=middle;resizable=0;points=[];" vertex="1" connectable="0" parent="RXjEYfC67qReFsxiy0O_-14">
          <mxGeometry x="-0.32" relative="1" as="geometry">
            <mxPoint as="offset" />
          </mxGeometry>
        </mxCell>
        <mxCell id="RXjEYfC67qReFsxiy0O_-15" value="" style="edgeStyle=orthogonalEdgeStyle;rounded=0;orthogonalLoop=1;jettySize=auto;html=1;" parent="1" source="RXjEYfC67qReFsxiy0O_-16" target="RXjEYfC67qReFsxiy0O_-21" edge="1">
          <mxGeometry relative="1" as="geometry" />
        </mxCell>
        <mxCell id="QH1ghsu3Y_A7_6N2Pi_0-9" value="No" style="edgeLabel;html=1;align=center;verticalAlign=middle;resizable=0;points=[];" vertex="1" connectable="0" parent="RXjEYfC67qReFsxiy0O_-15">
          <mxGeometry x="-0.5339" y="-1" relative="1" as="geometry">
            <mxPoint x="1" y="11" as="offset" />
          </mxGeometry>
        </mxCell>
        <mxCell id="RXjEYfC67qReFsxiy0O_-16" value="&lt;div&gt;&lt;br&gt;&lt;/div&gt;&lt;div&gt;Update Pegawai&lt;/div&gt;" style="rhombus;whiteSpace=wrap;html=1;verticalAlign=top;rounded=0;" parent="1" vertex="1">
          <mxGeometry x="270" y="530" width="80" height="80" as="geometry" />
        </mxCell>
        <mxCell id="RXjEYfC67qReFsxiy0O_-19" value="" style="edgeStyle=orthogonalEdgeStyle;rounded=0;orthogonalLoop=1;jettySize=auto;html=1;" parent="1" source="RXjEYfC67qReFsxiy0O_-21" edge="1">
          <mxGeometry relative="1" as="geometry">
            <mxPoint x="410" y="720" as="targetPoint" />
          </mxGeometry>
        </mxCell>
        <mxCell id="QH1ghsu3Y_A7_6N2Pi_0-8" value="Yes" style="edgeLabel;html=1;align=center;verticalAlign=middle;resizable=0;points=[];" vertex="1" connectable="0" parent="RXjEYfC67qReFsxiy0O_-19">
          <mxGeometry x="-0.2492" y="1" relative="1" as="geometry">
            <mxPoint as="offset" />
          </mxGeometry>
        </mxCell>
        <mxCell id="XbvIXVjWS5JPY9hjepc5-2" value="" style="edgeStyle=orthogonalEdgeStyle;rounded=0;orthogonalLoop=1;jettySize=auto;html=1;entryX=0.5;entryY=0;entryDx=0;entryDy=0;" parent="1" edge="1" target="z2nQsE2AfF8pHuCY5QHx-2">
          <mxGeometry relative="1" as="geometry">
            <mxPoint x="310" y="840" as="targetPoint" />
            <mxPoint x="310.0114942528736" y="759.9885057471264" as="sourcePoint" />
          </mxGeometry>
        </mxCell>
        <mxCell id="QH1ghsu3Y_A7_6N2Pi_0-7" value="No" style="edgeLabel;html=1;align=center;verticalAlign=middle;resizable=0;points=[];" vertex="1" connectable="0" parent="XbvIXVjWS5JPY9hjepc5-2">
          <mxGeometry x="-0.4481" y="2" relative="1" as="geometry">
            <mxPoint x="-2" y="8" as="offset" />
          </mxGeometry>
        </mxCell>
        <mxCell id="RXjEYfC67qReFsxiy0O_-21" value="&lt;div&gt;&lt;br&gt;&lt;/div&gt;&lt;div&gt;Hapus Pegawai&lt;/div&gt;" style="rhombus;whiteSpace=wrap;html=1;verticalAlign=top;rounded=0;" parent="1" vertex="1">
          <mxGeometry x="270" y="680" width="80" height="80" as="geometry" />
        </mxCell>
        <mxCell id="RXjEYfC67qReFsxiy0O_-24" value="" style="edgeStyle=orthogonalEdgeStyle;rounded=0;orthogonalLoop=1;jettySize=auto;html=1;" parent="1" source="RXjEYfC67qReFsxiy0O_-26" target="RXjEYfC67qReFsxiy0O_-27" edge="1">
          <mxGeometry relative="1" as="geometry" />
        </mxCell>
        <mxCell id="QH1ghsu3Y_A7_6N2Pi_0-17" value="Yes" style="edgeLabel;html=1;align=center;verticalAlign=middle;resizable=0;points=[];" vertex="1" connectable="0" parent="RXjEYfC67qReFsxiy0O_-24">
          <mxGeometry x="-0.1224" y="2" relative="1" as="geometry">
            <mxPoint as="offset" />
          </mxGeometry>
        </mxCell>
        <mxCell id="1ao45p4oeFlF3ZdFzdmz-2" value="" style="edgeStyle=orthogonalEdgeStyle;rounded=0;orthogonalLoop=1;jettySize=auto;html=1;" parent="1" source="RXjEYfC67qReFsxiy0O_-26" target="1ao45p4oeFlF3ZdFzdmz-1" edge="1">
          <mxGeometry relative="1" as="geometry" />
        </mxCell>
        <mxCell id="QH1ghsu3Y_A7_6N2Pi_0-18" value="No" style="edgeLabel;html=1;align=center;verticalAlign=middle;resizable=0;points=[];" vertex="1" connectable="0" parent="1ao45p4oeFlF3ZdFzdmz-2">
          <mxGeometry x="-0.3651" y="-2" relative="1" as="geometry">
            <mxPoint y="6" as="offset" />
          </mxGeometry>
        </mxCell>
        <mxCell id="RXjEYfC67qReFsxiy0O_-26" value="&lt;div&gt;&lt;br&gt;&lt;/div&gt;&lt;div&gt;&lt;font style=&quot;font-size: 11px;&quot;&gt;Keluar&amp;nbsp;&lt;/font&gt;&lt;/div&gt;&lt;div&gt;&lt;font style=&quot;font-size: 11px;&quot;&gt;Dari Program&lt;/font&gt;&lt;/div&gt;" style="rhombus;whiteSpace=wrap;html=1;verticalAlign=top;rounded=0;" parent="1" vertex="1">
          <mxGeometry x="270" y="1243" width="80" height="80" as="geometry" />
        </mxCell>
        <mxCell id="RXjEYfC67qReFsxiy0O_-27" value="Selesai" style="ellipse;whiteSpace=wrap;html=1;" parent="1" vertex="1">
          <mxGeometry x="420" y="1263" width="80" height="40" as="geometry" />
        </mxCell>
        <mxCell id="RXjEYfC67qReFsxiy0O_-30" value="Menu&amp;nbsp;&lt;div&gt;Admin&lt;/div&gt;" style="text;html=1;align=center;verticalAlign=middle;resizable=0;points=[];autosize=1;strokeColor=none;fillColor=none;" parent="1" vertex="1">
          <mxGeometry x="280" y="30" width="60" height="40" as="geometry" />
        </mxCell>
        <mxCell id="br8yFmo9MFFQGPsubi84-2" value="" style="edgeStyle=orthogonalEdgeStyle;rounded=0;orthogonalLoop=1;jettySize=auto;html=1;" parent="1" source="XbvIXVjWS5JPY9hjepc5-6" target="br8yFmo9MFFQGPsubi84-1" edge="1">
          <mxGeometry relative="1" as="geometry" />
        </mxCell>
        <mxCell id="QH1ghsu3Y_A7_6N2Pi_0-4" value="No" style="edgeLabel;html=1;align=center;verticalAlign=middle;resizable=0;points=[];" vertex="1" connectable="0" parent="br8yFmo9MFFQGPsubi84-2">
          <mxGeometry x="-0.596" y="-1" relative="1" as="geometry">
            <mxPoint y="12" as="offset" />
          </mxGeometry>
        </mxCell>
        <mxCell id="br8yFmo9MFFQGPsubi84-49" value="" style="edgeStyle=orthogonalEdgeStyle;rounded=0;orthogonalLoop=1;jettySize=auto;html=1;" parent="1" source="XbvIXVjWS5JPY9hjepc5-6" edge="1">
          <mxGeometry relative="1" as="geometry">
            <mxPoint x="420" y="997" as="targetPoint" />
          </mxGeometry>
        </mxCell>
        <mxCell id="QH1ghsu3Y_A7_6N2Pi_0-3" value="Yes" style="edgeLabel;html=1;align=center;verticalAlign=middle;resizable=0;points=[];" vertex="1" connectable="0" parent="br8yFmo9MFFQGPsubi84-49">
          <mxGeometry x="-0.3283" y="2" relative="1" as="geometry">
            <mxPoint as="offset" />
          </mxGeometry>
        </mxCell>
        <mxCell id="XbvIXVjWS5JPY9hjepc5-6" value="" style="rhombus;whiteSpace=wrap;html=1;verticalAlign=top;rounded=0;" parent="1" vertex="1">
          <mxGeometry x="265" y="957" width="90" height="80" as="geometry" />
        </mxCell>
        <mxCell id="br8yFmo9MFFQGPsubi84-45" value="" style="edgeStyle=orthogonalEdgeStyle;rounded=0;orthogonalLoop=1;jettySize=auto;html=1;" parent="1" source="z2nQsE2AfF8pHuCY5QHx-2" target="br8yFmo9MFFQGPsubi84-10" edge="1">
          <mxGeometry relative="1" as="geometry">
            <Array as="points">
              <mxPoint x="400" y="863" />
              <mxPoint x="400" y="863" />
            </Array>
          </mxGeometry>
        </mxCell>
        <mxCell id="QH1ghsu3Y_A7_6N2Pi_0-6" value="Yes" style="edgeLabel;html=1;align=center;verticalAlign=middle;resizable=0;points=[];" vertex="1" connectable="0" parent="br8yFmo9MFFQGPsubi84-45">
          <mxGeometry x="-0.3692" y="2" relative="1" as="geometry">
            <mxPoint x="6" y="2" as="offset" />
          </mxGeometry>
        </mxCell>
        <mxCell id="br8yFmo9MFFQGPsubi84-47" value="" style="edgeStyle=orthogonalEdgeStyle;rounded=0;orthogonalLoop=1;jettySize=auto;html=1;" parent="1" source="z2nQsE2AfF8pHuCY5QHx-2" target="XbvIXVjWS5JPY9hjepc5-6" edge="1">
          <mxGeometry relative="1" as="geometry" />
        </mxCell>
        <mxCell id="QH1ghsu3Y_A7_6N2Pi_0-5" value="No" style="edgeLabel;html=1;align=center;verticalAlign=middle;resizable=0;points=[];" vertex="1" connectable="0" parent="br8yFmo9MFFQGPsubi84-47">
          <mxGeometry x="-0.3437" y="2" relative="1" as="geometry">
            <mxPoint x="-3" y="4" as="offset" />
          </mxGeometry>
        </mxCell>
        <mxCell id="z2nQsE2AfF8pHuCY5QHx-2" value="" style="rhombus;whiteSpace=wrap;html=1;verticalAlign=top;rounded=0;" parent="1" vertex="1">
          <mxGeometry x="273" y="824" width="75" height="70" as="geometry" />
        </mxCell>
        <mxCell id="br8yFmo9MFFQGPsubi84-50" value="" style="edgeStyle=orthogonalEdgeStyle;rounded=0;orthogonalLoop=1;jettySize=auto;html=1;" parent="1" source="br8yFmo9MFFQGPsubi84-1" target="br8yFmo9MFFQGPsubi84-12" edge="1">
          <mxGeometry relative="1" as="geometry" />
        </mxCell>
        <mxCell id="QH1ghsu3Y_A7_6N2Pi_0-15" value="Yes" style="edgeLabel;html=1;align=center;verticalAlign=middle;resizable=0;points=[];" vertex="1" connectable="0" parent="br8yFmo9MFFQGPsubi84-50">
          <mxGeometry x="-0.2327" y="2" relative="1" as="geometry">
            <mxPoint as="offset" />
          </mxGeometry>
        </mxCell>
        <mxCell id="br8yFmo9MFFQGPsubi84-51" value="" style="edgeStyle=orthogonalEdgeStyle;rounded=0;orthogonalLoop=1;jettySize=auto;html=1;" parent="1" source="br8yFmo9MFFQGPsubi84-1" target="RXjEYfC67qReFsxiy0O_-26" edge="1">
          <mxGeometry relative="1" as="geometry" />
        </mxCell>
        <mxCell id="QH1ghsu3Y_A7_6N2Pi_0-16" value="No" style="edgeLabel;html=1;align=center;verticalAlign=middle;resizable=0;points=[];" vertex="1" connectable="0" parent="br8yFmo9MFFQGPsubi84-51">
          <mxGeometry x="-0.4252" y="-1" relative="1" as="geometry">
            <mxPoint y="6" as="offset" />
          </mxGeometry>
        </mxCell>
        <mxCell id="br8yFmo9MFFQGPsubi84-1" value="&lt;div&gt;&lt;br&gt;&lt;/div&gt;&lt;div&gt;Absen&amp;nbsp;&lt;/div&gt;&lt;div&gt;Pegawai&lt;/div&gt;" style="rhombus;whiteSpace=wrap;html=1;verticalAlign=top;rounded=0;" parent="1" vertex="1">
          <mxGeometry x="265" y="1100" width="90" height="80" as="geometry" />
        </mxCell>
        <mxCell id="br8yFmo9MFFQGPsubi84-5" value="" style="verticalLabelPosition=bottom;verticalAlign=top;html=1;shape=offPageConnector;rounded=0;size=0.5;" parent="1" vertex="1">
          <mxGeometry x="410" y="264" width="80" height="78" as="geometry" />
        </mxCell>
        <mxCell id="br8yFmo9MFFQGPsubi84-6" value="" style="verticalLabelPosition=bottom;verticalAlign=top;html=1;shape=offPageConnector;rounded=0;size=0.5;" parent="1" vertex="1">
          <mxGeometry x="410" y="394" width="80" height="80" as="geometry" />
        </mxCell>
        <mxCell id="br8yFmo9MFFQGPsubi84-7" value="" style="verticalLabelPosition=bottom;verticalAlign=top;html=1;shape=offPageConnector;rounded=0;size=0.5;" parent="1" vertex="1">
          <mxGeometry x="409" y="538" width="80" height="90" as="geometry" />
        </mxCell>
        <mxCell id="br8yFmo9MFFQGPsubi84-8" value="" style="verticalLabelPosition=bottom;verticalAlign=top;html=1;shape=offPageConnector;rounded=0;size=0.5;" parent="1" vertex="1">
          <mxGeometry x="410" y="680" width="80" height="80" as="geometry" />
        </mxCell>
        <mxCell id="br8yFmo9MFFQGPsubi84-10" value="" style="verticalLabelPosition=bottom;verticalAlign=top;html=1;shape=offPageConnector;rounded=0;size=0.5;" parent="1" vertex="1">
          <mxGeometry x="415" y="833" width="76" height="80" as="geometry" />
        </mxCell>
        <mxCell id="br8yFmo9MFFQGPsubi84-12" value="" style="verticalLabelPosition=bottom;verticalAlign=top;html=1;shape=offPageConnector;rounded=0;size=0.5;" parent="1" vertex="1">
          <mxGeometry x="425" y="1097.5" width="75" height="85" as="geometry" />
        </mxCell>
        <mxCell id="br8yFmo9MFFQGPsubi84-40" value="Menu&amp;nbsp;&lt;div&gt;Tambah&amp;nbsp;&lt;div&gt;Pegawai&lt;/div&gt;&lt;/div&gt;" style="text;html=1;align=center;verticalAlign=middle;resizable=0;points=[];autosize=1;strokeColor=none;fillColor=none;" parent="1" vertex="1">
          <mxGeometry x="415" y="264" width="70" height="60" as="geometry" />
        </mxCell>
        <mxCell id="br8yFmo9MFFQGPsubi84-41" value="Menu&amp;nbsp;&lt;div&gt;Tampilkan&amp;nbsp;&lt;div&gt;Pegawai&lt;/div&gt;&lt;/div&gt;" style="text;html=1;align=center;verticalAlign=middle;resizable=0;points=[];autosize=1;strokeColor=none;fillColor=none;" parent="1" vertex="1">
          <mxGeometry x="410" y="396" width="80" height="60" as="geometry" />
        </mxCell>
        <mxCell id="br8yFmo9MFFQGPsubi84-42" value="Menu&amp;nbsp;&lt;div&gt;Update&lt;div&gt;Pegawai&lt;/div&gt;&lt;/div&gt;" style="text;html=1;align=center;verticalAlign=middle;resizable=0;points=[];autosize=1;strokeColor=none;fillColor=none;" parent="1" vertex="1">
          <mxGeometry x="414" y="540" width="70" height="60" as="geometry" />
        </mxCell>
        <mxCell id="br8yFmo9MFFQGPsubi84-43" value="Menu&amp;nbsp;&lt;div&gt;Hapus&lt;div&gt;&amp;nbsp;Pegawai&lt;/div&gt;&lt;/div&gt;" style="text;html=1;align=center;verticalAlign=middle;resizable=0;points=[];autosize=1;strokeColor=none;fillColor=none;" parent="1" vertex="1">
          <mxGeometry x="414" y="680" width="70" height="60" as="geometry" />
        </mxCell>
        <mxCell id="br8yFmo9MFFQGPsubi84-54" value="Menu&amp;nbsp;&lt;div&gt;Sorting&lt;div&gt;Data&lt;/div&gt;&lt;/div&gt;" style="text;html=1;align=center;verticalAlign=middle;resizable=0;points=[];autosize=1;strokeColor=none;fillColor=none;" parent="1" vertex="1">
          <mxGeometry x="423" y="833" width="60" height="60" as="geometry" />
        </mxCell>
        <mxCell id="br8yFmo9MFFQGPsubi84-56" value="Menu&amp;nbsp;&lt;div&gt;Absen&amp;nbsp;&lt;div&gt;Pegawai&lt;/div&gt;&lt;/div&gt;" style="text;html=1;align=center;verticalAlign=middle;resizable=0;points=[];autosize=1;strokeColor=none;fillColor=none;" parent="1" vertex="1">
          <mxGeometry x="430" y="1097.5" width="70" height="60" as="geometry" />
        </mxCell>
        <mxCell id="1ao45p4oeFlF3ZdFzdmz-1" value="&lt;div&gt;&lt;br&gt;&lt;/div&gt;Pilihan Tidak&lt;div&gt;Valid&lt;/div&gt;" style="shape=parallelogram;perimeter=parallelogramPerimeter;whiteSpace=wrap;html=1;fixedSize=1;verticalAlign=top;rounded=0;" parent="1" vertex="1">
          <mxGeometry x="250" y="1384" width="120" height="60" as="geometry" />
        </mxCell>
        <mxCell id="X3U4xv1sxy_hhdVUfSIW-1" style="edgeStyle=orthogonalEdgeStyle;rounded=0;orthogonalLoop=1;jettySize=auto;html=1;entryX=0.989;entryY=0.45;entryDx=0;entryDy=0;entryPerimeter=0;exitX=1;exitY=0.5;exitDx=0;exitDy=0;" parent="1" source="1ao45p4oeFlF3ZdFzdmz-1" target="RXjEYfC67qReFsxiy0O_-30" edge="1">
          <mxGeometry relative="1" as="geometry">
            <Array as="points">
              <mxPoint x="560" y="1414" />
              <mxPoint x="560" y="48" />
            </Array>
          </mxGeometry>
        </mxCell>
        <mxCell id="xgF61CkpexsjpnC0uQNb-1" value="" style="endArrow=classic;html=1;rounded=0;" parent="1" edge="1">
          <mxGeometry width="50" height="50" relative="1" as="geometry">
            <mxPoint x="325" y="1434" as="sourcePoint" />
            <mxPoint x="395" y="1434" as="targetPoint" />
          </mxGeometry>
        </mxCell>
        <mxCell id="IaGpEXXPiR-FrVdST1PR-1" value="&lt;br&gt;&lt;div&gt;&lt;span style=&quot;font-size: 10px; text-wrap-mode: wrap;&quot;&gt;Tampilkan&lt;/span&gt;&lt;/div&gt;&lt;div&gt;&lt;span style=&quot;font-size: 10px; text-wrap-mode: wrap;&quot;&gt;Pegawai&lt;/span&gt;&lt;/div&gt;" style="text;html=1;align=center;verticalAlign=middle;resizable=0;points=[];autosize=1;strokeColor=none;fillColor=none;" vertex="1" parent="1">
          <mxGeometry x="275" y="386" width="70" height="60" as="geometry" />
        </mxCell>
        <mxCell id="IaGpEXXPiR-FrVdST1PR-2" value="&lt;br&gt;&lt;div&gt;&lt;span style=&quot;text-wrap-mode: wrap;&quot;&gt;Reset Data&lt;/span&gt;&lt;/div&gt;&lt;div&gt;&lt;span style=&quot;text-wrap-mode: wrap;&quot;&gt;Pegawai&lt;/span&gt;&lt;/div&gt;" style="text;html=1;align=center;verticalAlign=middle;resizable=0;points=[];autosize=1;strokeColor=none;fillColor=none;" vertex="1" parent="1">
          <mxGeometry x="270" y="957" width="80" height="60" as="geometry" />
        </mxCell>
        <mxCell id="QH1ghsu3Y_A7_6N2Pi_0-1" value="" style="verticalLabelPosition=bottom;verticalAlign=top;html=1;shape=offPageConnector;rounded=0;size=0.5;" vertex="1" parent="1">
          <mxGeometry x="420" y="989" width="70" height="75" as="geometry" />
        </mxCell>
        <mxCell id="QH1ghsu3Y_A7_6N2Pi_0-2" value="&lt;font style=&quot;font-size: 10px;&quot;&gt;Menu&amp;nbsp;&lt;/font&gt;&lt;span style=&quot;background-color: transparent; color: light-dark(rgb(0, 0, 0), rgb(255, 255, 255)); font-size: 10px;&quot;&gt;Riset&lt;/span&gt;&lt;div&gt;&lt;span style=&quot;font-size: 10px; background-color: transparent; color: light-dark(rgb(0, 0, 0), rgb(255, 255, 255));&quot;&gt;Data&amp;nbsp;&lt;/span&gt;&lt;span style=&quot;background-color: transparent; color: light-dark(rgb(0, 0, 0), rgb(255, 255, 255)); font-size: 10px;&quot;&gt;Pegawai&lt;/span&gt;&lt;/div&gt;" style="text;html=1;align=center;verticalAlign=middle;resizable=0;points=[];autosize=1;strokeColor=none;fillColor=none;" vertex="1" parent="1">
          <mxGeometry x="410" y="989" width="90" height="40" as="geometry" />
        </mxCell>
        <mxCell id="QH1ghsu3Y_A7_6N2Pi_0-19" value="&lt;span style=&quot;text-wrap-mode: wrap;&quot;&gt;Sorting Data&lt;/span&gt;" style="text;html=1;align=center;verticalAlign=middle;resizable=0;points=[];autosize=1;strokeColor=none;fillColor=none;" vertex="1" parent="1">
          <mxGeometry x="263.5" y="844" width="90" height="30" as="geometry" />
        </mxCell>
      </root>
    </mxGraphModel>
  </diagram>
  <diagram id="4tePX7HSp4DlVwQMf00M" name="Menu User">
    <mxGraphModel dx="1351" dy="946" grid="1" gridSize="10" guides="1" tooltips="1" connect="1" arrows="1" fold="1" page="1" pageScale="1" pageWidth="827" pageHeight="1169" math="0" shadow="0">
      <root>
        <mxCell id="0" />
        <mxCell id="1" parent="0" />
        <mxCell id="ftZjae905mJIpJ40mcCA-2" value="" style="edgeStyle=orthogonalEdgeStyle;rounded=0;orthogonalLoop=1;jettySize=auto;html=1;" parent="1" source="bkCHSXSbrhnTm5BoxOfO-1" target="ftZjae905mJIpJ40mcCA-1" edge="1">
          <mxGeometry relative="1" as="geometry" />
        </mxCell>
        <mxCell id="bkCHSXSbrhnTm5BoxOfO-1" value="" style="verticalLabelPosition=bottom;verticalAlign=top;html=1;shape=offPageConnector;rounded=0;size=0.5;" parent="1" vertex="1">
          <mxGeometry x="170" y="40" width="60" height="60" as="geometry" />
        </mxCell>
        <mxCell id="bkCHSXSbrhnTm5BoxOfO-3" value="Menu&amp;nbsp;&lt;div&gt;User&lt;/div&gt;" style="text;html=1;align=center;verticalAlign=middle;resizable=0;points=[];autosize=1;strokeColor=none;fillColor=none;" parent="1" vertex="1">
          <mxGeometry x="170" y="40" width="60" height="40" as="geometry" />
        </mxCell>
        <mxCell id="a9rCmgNGgFE4qSEY9nOw-2" value="" style="edgeStyle=orthogonalEdgeStyle;rounded=0;orthogonalLoop=1;jettySize=auto;html=1;" parent="1" source="ftZjae905mJIpJ40mcCA-1" target="a9rCmgNGgFE4qSEY9nOw-1" edge="1">
          <mxGeometry relative="1" as="geometry" />
        </mxCell>
        <mxCell id="ftZjae905mJIpJ40mcCA-1" value="&lt;div&gt;&lt;br&gt;&lt;/div&gt;Tampilan Menu&amp;nbsp;&lt;div&gt;User Baru&lt;/div&gt;" style="shape=parallelogram;perimeter=parallelogramPerimeter;whiteSpace=wrap;html=1;fixedSize=1;verticalAlign=top;rounded=0;" parent="1" vertex="1">
          <mxGeometry x="140" y="150" width="120" height="60" as="geometry" />
        </mxCell>
        <mxCell id="a9rCmgNGgFE4qSEY9nOw-4" value="" style="edgeStyle=orthogonalEdgeStyle;rounded=0;orthogonalLoop=1;jettySize=auto;html=1;" parent="1" source="a9rCmgNGgFE4qSEY9nOw-1" target="a9rCmgNGgFE4qSEY9nOw-3" edge="1">
          <mxGeometry relative="1" as="geometry" />
        </mxCell>
        <mxCell id="NQkq2MGbnumUFbfAkFdI-2" value="No" style="edgeLabel;html=1;align=center;verticalAlign=middle;resizable=0;points=[];" vertex="1" connectable="0" parent="a9rCmgNGgFE4qSEY9nOw-4">
          <mxGeometry x="-0.04" y="-3" relative="1" as="geometry">
            <mxPoint x="3" y="-2" as="offset" />
          </mxGeometry>
        </mxCell>
        <mxCell id="a9rCmgNGgFE4qSEY9nOw-14" value="" style="edgeStyle=orthogonalEdgeStyle;rounded=0;orthogonalLoop=1;jettySize=auto;html=1;" parent="1" source="a9rCmgNGgFE4qSEY9nOw-1" target="a9rCmgNGgFE4qSEY9nOw-12" edge="1">
          <mxGeometry relative="1" as="geometry" />
        </mxCell>
        <mxCell id="NQkq2MGbnumUFbfAkFdI-1" value="Yes" style="edgeLabel;html=1;align=center;verticalAlign=middle;resizable=0;points=[];" vertex="1" connectable="0" parent="a9rCmgNGgFE4qSEY9nOw-14">
          <mxGeometry x="-0.0509" y="2" relative="1" as="geometry">
            <mxPoint x="-2" y="1" as="offset" />
          </mxGeometry>
        </mxCell>
        <mxCell id="a9rCmgNGgFE4qSEY9nOw-1" value="&lt;div&gt;&lt;br&gt;&lt;/div&gt;&lt;div&gt;&lt;font style=&quot;font-size: 11px;&quot;&gt;Tampilkan&amp;nbsp;&lt;/font&gt;&lt;/div&gt;&lt;div&gt;&lt;font style=&quot;font-size: 11px;&quot;&gt;Data&amp;nbsp;&lt;/font&gt;&lt;/div&gt;&lt;div&gt;&lt;font style=&quot;font-size: 11px;&quot;&gt;Pegawai&lt;/font&gt;&lt;/div&gt;" style="rhombus;whiteSpace=wrap;html=1;verticalAlign=top;rounded=0;" parent="1" vertex="1">
          <mxGeometry x="150" y="260" width="100" height="90" as="geometry" />
        </mxCell>
        <mxCell id="a9rCmgNGgFE4qSEY9nOw-6" value="" style="edgeStyle=orthogonalEdgeStyle;rounded=0;orthogonalLoop=1;jettySize=auto;html=1;" parent="1" source="a9rCmgNGgFE4qSEY9nOw-3" target="a9rCmgNGgFE4qSEY9nOw-5" edge="1">
          <mxGeometry relative="1" as="geometry" />
        </mxCell>
        <mxCell id="NQkq2MGbnumUFbfAkFdI-7" value="No" style="edgeLabel;html=1;align=center;verticalAlign=middle;resizable=0;points=[];" vertex="1" connectable="0" parent="a9rCmgNGgFE4qSEY9nOw-6">
          <mxGeometry x="-0.16" y="-1" relative="1" as="geometry">
            <mxPoint as="offset" />
          </mxGeometry>
        </mxCell>
        <mxCell id="a9rCmgNGgFE4qSEY9nOw-13" value="" style="edgeStyle=orthogonalEdgeStyle;rounded=0;orthogonalLoop=1;jettySize=auto;html=1;" parent="1" source="a9rCmgNGgFE4qSEY9nOw-3" target="a9rCmgNGgFE4qSEY9nOw-11" edge="1">
          <mxGeometry relative="1" as="geometry" />
        </mxCell>
        <mxCell id="NQkq2MGbnumUFbfAkFdI-5" value="Yes" style="edgeLabel;html=1;align=center;verticalAlign=middle;resizable=0;points=[];" vertex="1" connectable="0" parent="a9rCmgNGgFE4qSEY9nOw-13">
          <mxGeometry x="-0.1707" y="3" relative="1" as="geometry">
            <mxPoint as="offset" />
          </mxGeometry>
        </mxCell>
        <mxCell id="a9rCmgNGgFE4qSEY9nOw-3" value="&lt;div&gt;&lt;br&gt;&lt;/div&gt;&lt;div&gt;&lt;br&gt;&lt;/div&gt;&lt;div&gt;Absensi&lt;/div&gt;&lt;div&gt;Pegawai&lt;/div&gt;" style="rhombus;whiteSpace=wrap;html=1;verticalAlign=top;rounded=0;" parent="1" vertex="1">
          <mxGeometry x="150" y="430" width="100" height="90" as="geometry" />
        </mxCell>
        <mxCell id="a9rCmgNGgFE4qSEY9nOw-8" value="" style="edgeStyle=orthogonalEdgeStyle;rounded=0;orthogonalLoop=1;jettySize=auto;html=1;" parent="1" source="a9rCmgNGgFE4qSEY9nOw-5" target="a9rCmgNGgFE4qSEY9nOw-7" edge="1">
          <mxGeometry relative="1" as="geometry" />
        </mxCell>
        <mxCell id="NQkq2MGbnumUFbfAkFdI-8" value="No" style="edgeLabel;html=1;align=center;verticalAlign=middle;resizable=0;points=[];" vertex="1" connectable="0" parent="a9rCmgNGgFE4qSEY9nOw-8">
          <mxGeometry x="0.0164" relative="1" as="geometry">
            <mxPoint y="-3" as="offset" />
          </mxGeometry>
        </mxCell>
        <mxCell id="owNJV79cPLyf3iWlpklf-2" value="" style="edgeStyle=orthogonalEdgeStyle;rounded=0;orthogonalLoop=1;jettySize=auto;html=1;" parent="1" source="a9rCmgNGgFE4qSEY9nOw-5" target="owNJV79cPLyf3iWlpklf-1" edge="1">
          <mxGeometry relative="1" as="geometry" />
        </mxCell>
        <mxCell id="NQkq2MGbnumUFbfAkFdI-6" value="Yes" style="edgeLabel;html=1;align=center;verticalAlign=middle;resizable=0;points=[];" vertex="1" connectable="0" parent="owNJV79cPLyf3iWlpklf-2">
          <mxGeometry x="-0.1879" y="1" relative="1" as="geometry">
            <mxPoint as="offset" />
          </mxGeometry>
        </mxCell>
        <mxCell id="a9rCmgNGgFE4qSEY9nOw-5" value="&lt;div&gt;&lt;br&gt;&lt;/div&gt;&lt;div&gt;Lihat&lt;/div&gt;&lt;div&gt;Hasil&lt;/div&gt;&lt;div&gt;Kerja&lt;/div&gt;" style="rhombus;whiteSpace=wrap;html=1;verticalAlign=top;rounded=0;" parent="1" vertex="1">
          <mxGeometry x="150" y="592" width="100" height="90" as="geometry" />
        </mxCell>
        <mxCell id="tbodu6IKLviL0HTK78FZ-3" value="" style="edgeStyle=orthogonalEdgeStyle;rounded=0;orthogonalLoop=1;jettySize=auto;html=1;" parent="1" source="a9rCmgNGgFE4qSEY9nOw-7" target="tbodu6IKLviL0HTK78FZ-2" edge="1">
          <mxGeometry relative="1" as="geometry" />
        </mxCell>
        <mxCell id="NQkq2MGbnumUFbfAkFdI-3" value="Yes" style="edgeLabel;html=1;align=center;verticalAlign=middle;resizable=0;points=[];" vertex="1" connectable="0" parent="tbodu6IKLviL0HTK78FZ-3">
          <mxGeometry x="-0.1" y="3" relative="1" as="geometry">
            <mxPoint x="-2" y="3" as="offset" />
          </mxGeometry>
        </mxCell>
        <mxCell id="tbodu6IKLviL0HTK78FZ-5" value="" style="edgeStyle=orthogonalEdgeStyle;rounded=0;orthogonalLoop=1;jettySize=auto;html=1;" parent="1" source="a9rCmgNGgFE4qSEY9nOw-7" target="tbodu6IKLviL0HTK78FZ-4" edge="1">
          <mxGeometry relative="1" as="geometry" />
        </mxCell>
        <mxCell id="NQkq2MGbnumUFbfAkFdI-4" value="No" style="edgeLabel;html=1;align=center;verticalAlign=middle;resizable=0;points=[];" vertex="1" connectable="0" parent="tbodu6IKLviL0HTK78FZ-5">
          <mxGeometry x="-0.4404" relative="1" as="geometry">
            <mxPoint y="9" as="offset" />
          </mxGeometry>
        </mxCell>
        <mxCell id="a9rCmgNGgFE4qSEY9nOw-7" value="&lt;div&gt;&lt;br&gt;&lt;/div&gt;&lt;div&gt;&lt;br&gt;&lt;/div&gt;&lt;div&gt;Logout&lt;/div&gt;" style="rhombus;whiteSpace=wrap;html=1;verticalAlign=top;rounded=0;" parent="1" vertex="1">
          <mxGeometry x="150" y="758" width="100" height="90" as="geometry" />
        </mxCell>
        <mxCell id="a9rCmgNGgFE4qSEY9nOw-11" value="" style="verticalLabelPosition=bottom;verticalAlign=top;html=1;shape=offPageConnector;rounded=0;size=0.5;" parent="1" vertex="1">
          <mxGeometry x="330" y="430" width="80" height="90" as="geometry" />
        </mxCell>
        <mxCell id="a9rCmgNGgFE4qSEY9nOw-12" value="" style="verticalLabelPosition=bottom;verticalAlign=top;html=1;shape=offPageConnector;rounded=0;size=0.5;" parent="1" vertex="1">
          <mxGeometry x="330" y="261" width="80" height="90" as="geometry" />
        </mxCell>
        <mxCell id="owNJV79cPLyf3iWlpklf-1" value="" style="verticalLabelPosition=bottom;verticalAlign=top;html=1;shape=offPageConnector;rounded=0;size=0.5;" parent="1" vertex="1">
          <mxGeometry x="330" y="592" width="80" height="90" as="geometry" />
        </mxCell>
        <mxCell id="owNJV79cPLyf3iWlpklf-3" value="Menu&amp;nbsp;&lt;div&gt;Tampilan&lt;div&gt;Data&lt;/div&gt;&lt;div&gt;Pegawai&lt;/div&gt;&lt;/div&gt;" style="text;html=1;align=center;verticalAlign=middle;resizable=0;points=[];autosize=1;strokeColor=none;fillColor=none;" parent="1" vertex="1">
          <mxGeometry x="335" y="261" width="70" height="70" as="geometry" />
        </mxCell>
        <mxCell id="owNJV79cPLyf3iWlpklf-4" value="Menu&amp;nbsp;&lt;div&gt;Absensi&amp;nbsp;&lt;/div&gt;&lt;div&gt;Pegawai&lt;/div&gt;" style="text;html=1;align=center;verticalAlign=middle;resizable=0;points=[];autosize=1;strokeColor=none;fillColor=none;" parent="1" vertex="1">
          <mxGeometry x="335" y="430" width="70" height="60" as="geometry" />
        </mxCell>
        <mxCell id="owNJV79cPLyf3iWlpklf-5" value="Menu Lihat&lt;div&gt;Hasil&lt;/div&gt;&lt;div&gt;Kerja&lt;/div&gt;" style="text;html=1;align=center;verticalAlign=middle;resizable=0;points=[];autosize=1;strokeColor=none;fillColor=none;" parent="1" vertex="1">
          <mxGeometry x="330" y="592" width="80" height="60" as="geometry" />
        </mxCell>
        <mxCell id="tbodu6IKLviL0HTK78FZ-2" value="Selesai" style="strokeWidth=2;html=1;shape=mxgraph.flowchart.start_1;whiteSpace=wrap;" parent="1" vertex="1">
          <mxGeometry x="310" y="773" width="100" height="60" as="geometry" />
        </mxCell>
        <mxCell id="tbodu6IKLviL0HTK78FZ-4" value="&lt;div&gt;&lt;br&gt;&lt;/div&gt;Pilihan Tidak&lt;div&gt;Valid&lt;/div&gt;" style="shape=parallelogram;perimeter=parallelogramPerimeter;whiteSpace=wrap;html=1;fixedSize=1;verticalAlign=top;rounded=0;" parent="1" vertex="1">
          <mxGeometry x="140" y="916" width="120" height="60" as="geometry" />
        </mxCell>
        <mxCell id="tbodu6IKLviL0HTK78FZ-6" value="" style="endArrow=classic;html=1;rounded=0;" parent="1" edge="1">
          <mxGeometry width="50" height="50" relative="1" as="geometry">
            <mxPoint x="220" y="967" as="sourcePoint" />
            <mxPoint x="290" y="967" as="targetPoint" />
          </mxGeometry>
        </mxCell>
        <mxCell id="zE4hfvyic7j8Z2qM9eyr-2" style="edgeStyle=orthogonalEdgeStyle;rounded=0;orthogonalLoop=1;jettySize=auto;html=1;entryX=0.956;entryY=0.483;entryDx=0;entryDy=0;entryPerimeter=0;exitX=1;exitY=0.5;exitDx=0;exitDy=0;" parent="1" source="tbodu6IKLviL0HTK78FZ-4" target="bkCHSXSbrhnTm5BoxOfO-3" edge="1">
          <mxGeometry relative="1" as="geometry">
            <Array as="points">
              <mxPoint x="250" y="948" />
              <mxPoint x="440" y="948" />
              <mxPoint x="440" y="59" />
            </Array>
          </mxGeometry>
        </mxCell>
      </root>
    </mxGraphModel>
  </diagram>
  <diagram id="JqWxRNEw2_tkCKDyveQ_" name="Tampilan Pegawai">
    <mxGraphModel dx="1351" dy="946" grid="1" gridSize="10" guides="1" tooltips="1" connect="1" arrows="1" fold="1" page="1" pageScale="1" pageWidth="827" pageHeight="1169" math="0" shadow="0">
      <root>
        <mxCell id="0" />
        <mxCell id="1" parent="0" />
        <mxCell id="L3lGKxX8qg5z3sIj31Y--2" value="" style="edgeStyle=orthogonalEdgeStyle;rounded=0;orthogonalLoop=1;jettySize=auto;html=1;" parent="1" source="W2N7ijguSFcYgEQYvg9n-1" target="L3lGKxX8qg5z3sIj31Y--1" edge="1">
          <mxGeometry relative="1" as="geometry" />
        </mxCell>
        <mxCell id="W2N7ijguSFcYgEQYvg9n-1" value="" style="verticalLabelPosition=bottom;verticalAlign=top;html=1;shape=offPageConnector;rounded=0;size=0.5;" parent="1" vertex="1">
          <mxGeometry x="160" y="10" width="70" height="80" as="geometry" />
        </mxCell>
        <mxCell id="L3lGKxX8qg5z3sIj31Y--4" value="" style="edgeStyle=orthogonalEdgeStyle;rounded=0;orthogonalLoop=1;jettySize=auto;html=1;" parent="1" source="L3lGKxX8qg5z3sIj31Y--1" target="L3lGKxX8qg5z3sIj31Y--3" edge="1">
          <mxGeometry relative="1" as="geometry" />
        </mxCell>
        <mxCell id="L3lGKxX8qg5z3sIj31Y--1" value="" style="shape=parallelogram;perimeter=parallelogramPerimeter;whiteSpace=wrap;html=1;fixedSize=1;verticalAlign=top;rounded=0;" parent="1" vertex="1">
          <mxGeometry x="107.5" y="140" width="175" height="80" as="geometry" />
        </mxCell>
        <mxCell id="L3lGKxX8qg5z3sIj31Y--6" value="" style="edgeStyle=orthogonalEdgeStyle;rounded=0;orthogonalLoop=1;jettySize=auto;html=1;" parent="1" source="L3lGKxX8qg5z3sIj31Y--3" target="L3lGKxX8qg5z3sIj31Y--5" edge="1">
          <mxGeometry relative="1" as="geometry" />
        </mxCell>
        <mxCell id="Ap5rcmK3hs44rJLh8d7m-2" value="No" style="edgeLabel;html=1;align=center;verticalAlign=middle;resizable=0;points=[];" vertex="1" connectable="0" parent="L3lGKxX8qg5z3sIj31Y--6">
          <mxGeometry x="-0.2185" y="-1" relative="1" as="geometry">
            <mxPoint y="3" as="offset" />
          </mxGeometry>
        </mxCell>
        <mxCell id="L3lGKxX8qg5z3sIj31Y--14" value="" style="edgeStyle=orthogonalEdgeStyle;rounded=0;orthogonalLoop=1;jettySize=auto;html=1;" parent="1" source="L3lGKxX8qg5z3sIj31Y--3" target="L3lGKxX8qg5z3sIj31Y--13" edge="1">
          <mxGeometry relative="1" as="geometry" />
        </mxCell>
        <mxCell id="Ap5rcmK3hs44rJLh8d7m-1" value="Yes" style="edgeLabel;html=1;align=center;verticalAlign=middle;resizable=0;points=[];" vertex="1" connectable="0" parent="L3lGKxX8qg5z3sIj31Y--14">
          <mxGeometry x="-0.2419" y="-1" relative="1" as="geometry">
            <mxPoint as="offset" />
          </mxGeometry>
        </mxCell>
        <mxCell id="L3lGKxX8qg5z3sIj31Y--3" value="&lt;div&gt;&lt;font style=&quot;font-size: 10px;&quot;&gt;&lt;br&gt;&lt;/font&gt;&lt;/div&gt;&lt;font style=&quot;font-size: 10px;&quot;&gt;&lt;span style=&quot;background-color: transparent; color: light-dark(rgb(0, 0, 0), rgb(255, 255, 255));&quot;&gt;Tampilkan&amp;nbsp;&lt;/span&gt;&lt;br&gt;&lt;/font&gt;&lt;div&gt;&lt;font style=&quot;font-size: 10px;&quot;&gt;Semua&amp;nbsp;&lt;/font&gt;&lt;/div&gt;&lt;div&gt;&lt;font style=&quot;font-size: 10px;&quot;&gt;Pegawai&lt;/font&gt;&lt;/div&gt;" style="rhombus;whiteSpace=wrap;html=1;verticalAlign=top;rounded=0;" parent="1" vertex="1">
          <mxGeometry x="148" y="284" width="95" height="90" as="geometry" />
        </mxCell>
        <mxCell id="L3lGKxX8qg5z3sIj31Y--12" value="" style="edgeStyle=orthogonalEdgeStyle;rounded=0;orthogonalLoop=1;jettySize=auto;html=1;" parent="1" source="L3lGKxX8qg5z3sIj31Y--5" target="L3lGKxX8qg5z3sIj31Y--11" edge="1">
          <mxGeometry relative="1" as="geometry" />
        </mxCell>
        <mxCell id="Ap5rcmK3hs44rJLh8d7m-4" value="No" style="edgeLabel;html=1;align=center;verticalAlign=middle;resizable=0;points=[];" vertex="1" connectable="0" parent="L3lGKxX8qg5z3sIj31Y--12">
          <mxGeometry x="-0.2319" relative="1" as="geometry">
            <mxPoint y="2" as="offset" />
          </mxGeometry>
        </mxCell>
        <mxCell id="ha95U1etUqnVymR-zUfz-2" value="" style="edgeStyle=orthogonalEdgeStyle;rounded=0;orthogonalLoop=1;jettySize=auto;html=1;" parent="1" source="L3lGKxX8qg5z3sIj31Y--5" target="ha95U1etUqnVymR-zUfz-1" edge="1">
          <mxGeometry relative="1" as="geometry" />
        </mxCell>
        <mxCell id="Ap5rcmK3hs44rJLh8d7m-3" value="Yes" style="edgeLabel;html=1;align=center;verticalAlign=middle;resizable=0;points=[];" vertex="1" connectable="0" parent="ha95U1etUqnVymR-zUfz-2">
          <mxGeometry x="-0.2224" y="-1" relative="1" as="geometry">
            <mxPoint as="offset" />
          </mxGeometry>
        </mxCell>
        <mxCell id="L3lGKxX8qg5z3sIj31Y--5" value="&lt;div&gt;&lt;br&gt;&lt;/div&gt;&lt;div&gt;Cari&lt;/div&gt;&lt;div&gt;Pegawai&lt;/div&gt;" style="rhombus;whiteSpace=wrap;html=1;verticalAlign=top;rounded=0;" parent="1" vertex="1">
          <mxGeometry x="155" y="449" width="80" height="80" as="geometry" />
        </mxCell>
        <mxCell id="L3lGKxX8qg5z3sIj31Y--11" value="" style="verticalLabelPosition=bottom;verticalAlign=top;html=1;shape=offPageConnector;rounded=0;size=0.5;" parent="1" vertex="1">
          <mxGeometry x="153.75" y="589" width="82.5" height="90" as="geometry" />
        </mxCell>
        <mxCell id="L3lGKxX8qg5z3sIj31Y--13" value="" style="shape=parallelogram;perimeter=parallelogramPerimeter;whiteSpace=wrap;html=1;fixedSize=1;verticalAlign=top;rounded=0;" parent="1" vertex="1">
          <mxGeometry x="295" y="299" width="120" height="60" as="geometry" />
        </mxCell>
        <mxCell id="ha95U1etUqnVymR-zUfz-1" value="" style="shape=parallelogram;perimeter=parallelogramPerimeter;whiteSpace=wrap;html=1;fixedSize=1;verticalAlign=top;rounded=0;" parent="1" vertex="1">
          <mxGeometry x="295" y="459" width="120" height="60" as="geometry" />
        </mxCell>
        <mxCell id="ha95U1etUqnVymR-zUfz-3" value="" style="endArrow=classic;html=1;rounded=0;" parent="1" edge="1">
          <mxGeometry width="50" height="50" relative="1" as="geometry">
            <mxPoint x="360" y="354" as="sourcePoint" />
            <mxPoint x="430" y="354" as="targetPoint" />
          </mxGeometry>
        </mxCell>
        <mxCell id="ha95U1etUqnVymR-zUfz-4" value="" style="endArrow=classic;html=1;rounded=0;" parent="1" edge="1">
          <mxGeometry width="50" height="50" relative="1" as="geometry">
            <mxPoint x="373" y="513" as="sourcePoint" />
            <mxPoint x="443" y="513" as="targetPoint" />
            <Array as="points">
              <mxPoint x="413" y="513" />
            </Array>
          </mxGeometry>
        </mxCell>
        <mxCell id="y3h8oTTSCXQrAvdeECv_-1" value="&lt;br&gt;&lt;div&gt;&lt;div style=&quot;text-wrap-mode: wrap;&quot;&gt;Menampilkan&amp;nbsp;&lt;/div&gt;&lt;div style=&quot;text-wrap-mode: wrap;&quot;&gt;Data&amp;nbsp;&lt;/div&gt;&lt;div style=&quot;text-wrap-mode: wrap;&quot;&gt;Pegawai&lt;/div&gt;&lt;/div&gt;" style="text;html=1;align=center;verticalAlign=middle;resizable=0;points=[];autosize=1;strokeColor=none;fillColor=none;" vertex="1" parent="1">
          <mxGeometry x="305" y="284" width="100" height="70" as="geometry" />
        </mxCell>
        <mxCell id="y3h8oTTSCXQrAvdeECv_-2" value="&lt;div style=&quot;text-wrap-mode: wrap;&quot;&gt;&lt;br&gt;&lt;/div&gt;" style="text;html=1;align=center;verticalAlign=middle;resizable=0;points=[];autosize=1;strokeColor=none;fillColor=none;" vertex="1" parent="1">
          <mxGeometry x="520" y="280" width="20" height="30" as="geometry" />
        </mxCell>
        <mxCell id="y3h8oTTSCXQrAvdeECv_-6" value="&lt;div style=&quot;text-align: center;&quot;&gt;&lt;span style=&quot;background-color: transparent; color: light-dark(rgb(0, 0, 0), rgb(255, 255, 255));&quot;&gt;1. Tampilkan Semua&amp;nbsp;&lt;/span&gt;&lt;/div&gt;&lt;div style=&quot;text-align: center;&quot;&gt;&lt;span style=&quot;background-color: transparent; color: light-dark(rgb(0, 0, 0), rgb(255, 255, 255));&quot;&gt;Pegawai&lt;/span&gt;&lt;/div&gt;&lt;div style=&quot;text-align: center;&quot;&gt;2. Cari Pagawai&lt;/div&gt;&lt;div style=&quot;text-align: center;&quot;&gt;Berdasarkan Nama&lt;/div&gt;" style="text;html=1;whiteSpace=wrap;overflow=hidden;rounded=0;" vertex="1" parent="1">
          <mxGeometry x="140" y="140" width="110" height="80" as="geometry" />
        </mxCell>
        <mxCell id="y3h8oTTSCXQrAvdeECv_-7" value="Menu Admin&amp;nbsp;&lt;div&gt;/&lt;/div&gt;&lt;div&gt;Menu User&lt;/div&gt;" style="text;html=1;align=center;verticalAlign=middle;resizable=0;points=[];autosize=1;strokeColor=none;fillColor=none;" vertex="1" parent="1">
          <mxGeometry x="150" y="589" width="90" height="60" as="geometry" />
        </mxCell>
        <mxCell id="y3h8oTTSCXQrAvdeECv_-8" value="Tampilan&lt;div&gt;Data&lt;/div&gt;&lt;div&gt;Pegawai&lt;/div&gt;" style="text;html=1;align=center;verticalAlign=middle;resizable=0;points=[];autosize=1;strokeColor=none;fillColor=none;" vertex="1" parent="1">
          <mxGeometry x="160" y="10" width="70" height="60" as="geometry" />
        </mxCell>
        <mxCell id="y3h8oTTSCXQrAvdeECv_-11" value="&lt;font style=&quot;text-wrap-mode: wrap; font-size: 11px;&quot;&gt;Menampilkan&amp;nbsp;&lt;/font&gt;&lt;div style=&quot;text-wrap-mode: wrap;&quot;&gt;&lt;font style=&quot;font-size: 11px;&quot;&gt;Pegawai&amp;nbsp;&lt;/font&gt;&lt;div&gt;&lt;font style=&quot;font-size: 11px;&quot;&gt;Berdasarkan&amp;nbsp;&lt;/font&gt;&lt;/div&gt;&lt;div&gt;&lt;font style=&quot;font-size: 11px;&quot;&gt;Nama&lt;/font&gt;&lt;/div&gt;&lt;/div&gt;" style="text;html=1;align=center;verticalAlign=middle;resizable=0;points=[];autosize=1;strokeColor=none;fillColor=none;" vertex="1" parent="1">
          <mxGeometry x="310" y="454" width="90" height="70" as="geometry" />
        </mxCell>
      </root>
    </mxGraphModel>
  </diagram>
  <diagram id="FIn0f7Wn7jJJ-WoIQiWa" name="Tambah Pegawai">
    <mxGraphModel dx="1113" dy="779" grid="1" gridSize="10" guides="1" tooltips="1" connect="1" arrows="1" fold="1" page="1" pageScale="1" pageWidth="827" pageHeight="1169" math="0" shadow="0">
      <root>
        <mxCell id="0" />
        <mxCell id="1" parent="0" />
        <mxCell id="0ndsnrXB-Mxa0jxnT7fZ-3" value="" style="edgeStyle=orthogonalEdgeStyle;rounded=0;orthogonalLoop=1;jettySize=auto;html=1;" parent="1" source="MXt21OdUmpsrwXFSgDeF-1" target="0ndsnrXB-Mxa0jxnT7fZ-2" edge="1">
          <mxGeometry relative="1" as="geometry" />
        </mxCell>
        <mxCell id="0ndsnrXB-Mxa0jxnT7fZ-13" value="" style="edgeStyle=orthogonalEdgeStyle;rounded=0;orthogonalLoop=1;jettySize=auto;html=1;" parent="1" source="MXt21OdUmpsrwXFSgDeF-1" target="0ndsnrXB-Mxa0jxnT7fZ-12" edge="1">
          <mxGeometry relative="1" as="geometry" />
        </mxCell>
        <mxCell id="MXt21OdUmpsrwXFSgDeF-1" value="" style="verticalLabelPosition=bottom;verticalAlign=top;html=1;shape=offPageConnector;rounded=0;size=0.5;" parent="1" vertex="1">
          <mxGeometry x="330" y="30" width="70" height="70" as="geometry" />
        </mxCell>
        <mxCell id="MXt21OdUmpsrwXFSgDeF-2" value="Tambah&amp;nbsp;&lt;div&gt;Pegawai&lt;/div&gt;" style="text;html=1;align=center;verticalAlign=middle;resizable=0;points=[];autosize=1;strokeColor=none;fillColor=none;" parent="1" vertex="1">
          <mxGeometry x="330" y="30" width="70" height="40" as="geometry" />
        </mxCell>
        <mxCell id="5cpKn70kAgDjMt3Xn0jk-1" style="edgeStyle=orthogonalEdgeStyle;rounded=0;orthogonalLoop=1;jettySize=auto;html=1;exitX=0.5;exitY=1;exitDx=0;exitDy=0;entryX=0.5;entryY=0;entryDx=0;entryDy=0;" edge="1" parent="1" source="0ndsnrXB-Mxa0jxnT7fZ-2" target="0ndsnrXB-Mxa0jxnT7fZ-4">
          <mxGeometry relative="1" as="geometry" />
        </mxCell>
        <mxCell id="0ndsnrXB-Mxa0jxnT7fZ-2" value="&lt;div&gt;&lt;br&gt;&lt;/div&gt;&lt;div&gt;Input Nama&amp;nbsp;&lt;/div&gt;&lt;div&gt;Pegawai&amp;nbsp;&lt;/div&gt;" style="shape=parallelogram;perimeter=parallelogramPerimeter;whiteSpace=wrap;html=1;fixedSize=1;verticalAlign=top;rounded=0;" parent="1" vertex="1">
          <mxGeometry x="305" y="320" width="120" height="60" as="geometry" />
        </mxCell>
        <mxCell id="0ndsnrXB-Mxa0jxnT7fZ-7" value="" style="edgeStyle=orthogonalEdgeStyle;rounded=0;orthogonalLoop=1;jettySize=auto;html=1;" parent="1" source="0ndsnrXB-Mxa0jxnT7fZ-4" target="0ndsnrXB-Mxa0jxnT7fZ-6" edge="1">
          <mxGeometry relative="1" as="geometry" />
        </mxCell>
        <mxCell id="0ndsnrXB-Mxa0jxnT7fZ-4" value="&lt;div&gt;Input&amp;nbsp;&lt;/div&gt;&lt;div&gt;Jabatan&lt;/div&gt;&lt;div&gt;Pegawai&amp;nbsp;&lt;/div&gt;" style="shape=parallelogram;perimeter=parallelogramPerimeter;whiteSpace=wrap;html=1;fixedSize=1;verticalAlign=top;rounded=0;" parent="1" vertex="1">
          <mxGeometry x="305" y="452" width="120" height="60" as="geometry" />
        </mxCell>
        <mxCell id="0ndsnrXB-Mxa0jxnT7fZ-9" value="" style="edgeStyle=orthogonalEdgeStyle;rounded=0;orthogonalLoop=1;jettySize=auto;html=1;" parent="1" source="0ndsnrXB-Mxa0jxnT7fZ-6" target="0ndsnrXB-Mxa0jxnT7fZ-8" edge="1">
          <mxGeometry relative="1" as="geometry" />
        </mxCell>
        <mxCell id="0ndsnrXB-Mxa0jxnT7fZ-6" value="Input&lt;div&gt;Waktu&lt;/div&gt;&lt;div&gt;Masuk&lt;/div&gt;" style="shape=parallelogram;perimeter=parallelogramPerimeter;whiteSpace=wrap;html=1;fixedSize=1;verticalAlign=top;rounded=0;" parent="1" vertex="1">
          <mxGeometry x="305" y="586" width="120" height="60" as="geometry" />
        </mxCell>
        <mxCell id="0ndsnrXB-Mxa0jxnT7fZ-11" value="" style="edgeStyle=orthogonalEdgeStyle;rounded=0;orthogonalLoop=1;jettySize=auto;html=1;" parent="1" source="0ndsnrXB-Mxa0jxnT7fZ-8" target="0ndsnrXB-Mxa0jxnT7fZ-10" edge="1">
          <mxGeometry relative="1" as="geometry" />
        </mxCell>
        <mxCell id="0ndsnrXB-Mxa0jxnT7fZ-8" value="Input&amp;nbsp;&lt;div&gt;Waktu&amp;nbsp;&lt;/div&gt;&lt;div&gt;Keluar&lt;/div&gt;" style="shape=parallelogram;perimeter=parallelogramPerimeter;whiteSpace=wrap;html=1;fixedSize=1;verticalAlign=top;rounded=0;" parent="1" vertex="1">
          <mxGeometry x="305" y="726" width="120" height="60" as="geometry" />
        </mxCell>
        <mxCell id="0ndsnrXB-Mxa0jxnT7fZ-17" value="" style="edgeStyle=orthogonalEdgeStyle;rounded=0;orthogonalLoop=1;jettySize=auto;html=1;" parent="1" source="0ndsnrXB-Mxa0jxnT7fZ-10" target="0ndsnrXB-Mxa0jxnT7fZ-16" edge="1">
          <mxGeometry relative="1" as="geometry" />
        </mxCell>
        <mxCell id="0ndsnrXB-Mxa0jxnT7fZ-10" value="Input&lt;div&gt;Hasil&lt;/div&gt;&lt;div&gt;Kerja&lt;/div&gt;" style="shape=parallelogram;perimeter=parallelogramPerimeter;whiteSpace=wrap;html=1;fixedSize=1;verticalAlign=top;rounded=0;" parent="1" vertex="1">
          <mxGeometry x="305" y="870" width="120" height="60" as="geometry" />
        </mxCell>
        <mxCell id="0ndsnrXB-Mxa0jxnT7fZ-15" value="" style="edgeStyle=orthogonalEdgeStyle;rounded=0;orthogonalLoop=1;jettySize=auto;html=1;" parent="1" source="0ndsnrXB-Mxa0jxnT7fZ-12" target="0ndsnrXB-Mxa0jxnT7fZ-14" edge="1">
          <mxGeometry relative="1" as="geometry" />
        </mxCell>
        <mxCell id="0ndsnrXB-Mxa0jxnT7fZ-12" value="" style="rhombus;whiteSpace=wrap;html=1;verticalAlign=top;rounded=0;" parent="1" vertex="1">
          <mxGeometry x="325" y="175" width="80" height="80" as="geometry" />
        </mxCell>
        <mxCell id="0ndsnrXB-Mxa0jxnT7fZ-14" value="" style="shape=parallelogram;perimeter=parallelogramPerimeter;whiteSpace=wrap;html=1;fixedSize=1;verticalAlign=top;rounded=0;" parent="1" vertex="1">
          <mxGeometry x="465" y="185" width="120" height="60" as="geometry" />
        </mxCell>
        <mxCell id="0ndsnrXB-Mxa0jxnT7fZ-19" value="" style="edgeStyle=orthogonalEdgeStyle;rounded=0;orthogonalLoop=1;jettySize=auto;html=1;entryX=0.501;entryY=0.061;entryDx=0;entryDy=0;entryPerimeter=0;" parent="1" source="0ndsnrXB-Mxa0jxnT7fZ-16" target="0ndsnrXB-Mxa0jxnT7fZ-20" edge="1">
          <mxGeometry relative="1" as="geometry">
            <mxPoint x="365.0000000000002" y="1132" as="targetPoint" />
          </mxGeometry>
        </mxCell>
        <mxCell id="0ndsnrXB-Mxa0jxnT7fZ-16" value="Jumlah&lt;div&gt;Data&lt;/div&gt;&lt;div&gt;Pegawai&lt;/div&gt;" style="rounded=0;whiteSpace=wrap;html=1;verticalAlign=top;" parent="1" vertex="1">
          <mxGeometry x="305" y="1005" width="120" height="60" as="geometry" />
        </mxCell>
        <mxCell id="0ndsnrXB-Mxa0jxnT7fZ-18" value="" style="verticalLabelPosition=bottom;verticalAlign=top;html=1;shape=offPageConnector;rounded=0;size=0.4;" parent="1" vertex="1">
          <mxGeometry x="335" y="1132" width="60" height="60" as="geometry" />
        </mxCell>
        <mxCell id="0ndsnrXB-Mxa0jxnT7fZ-20" value="Menu&lt;div&gt;Admin&lt;/div&gt;" style="text;html=1;align=center;verticalAlign=middle;resizable=0;points=[];autosize=1;strokeColor=none;fillColor=none;" parent="1" vertex="1">
          <mxGeometry x="335" y="1132" width="60" height="40" as="geometry" />
        </mxCell>
        <mxCell id="0ndsnrXB-Mxa0jxnT7fZ-21" value="" style="endArrow=classic;html=1;rounded=0;" parent="1" edge="1">
          <mxGeometry width="50" height="50" relative="1" as="geometry">
            <mxPoint x="275" y="370" as="sourcePoint" />
            <mxPoint x="335" y="370" as="targetPoint" />
          </mxGeometry>
        </mxCell>
        <mxCell id="0ndsnrXB-Mxa0jxnT7fZ-22" value="" style="endArrow=classic;html=1;rounded=0;" parent="1" edge="1">
          <mxGeometry width="50" height="50" relative="1" as="geometry">
            <mxPoint x="270" y="503" as="sourcePoint" />
            <mxPoint x="330" y="503" as="targetPoint" />
          </mxGeometry>
        </mxCell>
        <mxCell id="0ndsnrXB-Mxa0jxnT7fZ-23" value="" style="endArrow=classic;html=1;rounded=0;" parent="1" edge="1">
          <mxGeometry width="50" height="50" relative="1" as="geometry">
            <mxPoint x="275" y="635" as="sourcePoint" />
            <mxPoint x="335" y="635" as="targetPoint" />
          </mxGeometry>
        </mxCell>
        <mxCell id="0ndsnrXB-Mxa0jxnT7fZ-24" value="" style="endArrow=classic;html=1;rounded=0;" parent="1" edge="1">
          <mxGeometry width="50" height="50" relative="1" as="geometry">
            <mxPoint x="530" y="240" as="sourcePoint" />
            <mxPoint x="590" y="240" as="targetPoint" />
          </mxGeometry>
        </mxCell>
        <mxCell id="0ndsnrXB-Mxa0jxnT7fZ-25" value="" style="endArrow=classic;html=1;rounded=0;" parent="1" edge="1">
          <mxGeometry width="50" height="50" relative="1" as="geometry">
            <mxPoint x="275" y="775" as="sourcePoint" />
            <mxPoint x="335" y="775" as="targetPoint" />
          </mxGeometry>
        </mxCell>
        <mxCell id="0ndsnrXB-Mxa0jxnT7fZ-26" value="" style="endArrow=classic;html=1;rounded=0;" parent="1" edge="1">
          <mxGeometry width="50" height="50" relative="1" as="geometry">
            <mxPoint x="270" y="922" as="sourcePoint" />
            <mxPoint x="330" y="922" as="targetPoint" />
          </mxGeometry>
        </mxCell>
        <mxCell id="_6S8d5Bn_wu480vsitVn-2" value="&lt;h1 style=&quot;margin-top: 0px;&quot;&gt;&lt;span style=&quot;font-size: 12px; font-weight: 400; text-align: center;&quot;&gt;Kapasitas Data&amp;nbsp;&lt;/span&gt;&lt;div style=&quot;font-size: 12px; font-weight: 400; text-align: center;&quot;&gt;Pegawai Penuh&lt;/div&gt;&lt;/h1&gt;" style="text;html=1;whiteSpace=wrap;overflow=hidden;rounded=0;" vertex="1" parent="1">
          <mxGeometry x="480" y="180" width="90" height="60" as="geometry" />
        </mxCell>
        <mxCell id="_6S8d5Bn_wu480vsitVn-3" value="&lt;br&gt;&lt;div&gt;&lt;div style=&quot;text-wrap-mode: wrap;&quot;&gt;&lt;font style=&quot;font-size: 11px;&quot;&gt;Jumlah&lt;/font&gt;&lt;/div&gt;&lt;div style=&quot;text-wrap-mode: wrap;&quot;&gt;&lt;font style=&quot;font-size: 11px;&quot;&gt;Data&lt;/font&gt;&lt;/div&gt;&lt;div style=&quot;text-wrap-mode: wrap;&quot;&gt;&lt;font style=&quot;font-size: 11px;&quot;&gt;Pegawai&lt;/font&gt;&lt;/div&gt;&lt;/div&gt;" style="text;html=1;align=center;verticalAlign=middle;resizable=0;points=[];autosize=1;strokeColor=none;fillColor=none;" vertex="1" parent="1">
          <mxGeometry x="330" y="170" width="70" height="70" as="geometry" />
        </mxCell>
        <mxCell id="5cpKn70kAgDjMt3Xn0jk-2" style="edgeStyle=orthogonalEdgeStyle;rounded=0;orthogonalLoop=1;jettySize=auto;html=1;entryX=0.996;entryY=0.899;entryDx=0;entryDy=0;entryPerimeter=0;exitX=0.5;exitY=1;exitDx=0;exitDy=0;" edge="1" parent="1" source="0ndsnrXB-Mxa0jxnT7fZ-14" target="0ndsnrXB-Mxa0jxnT7fZ-20">
          <mxGeometry relative="1" as="geometry">
            <mxPoint x="525" y="250" as="sourcePoint" />
            <Array as="points">
              <mxPoint x="520" y="245" />
              <mxPoint x="520" y="1168" />
            </Array>
          </mxGeometry>
        </mxCell>
      </root>
    </mxGraphModel>
  </diagram>
  <diagram id="7eWlAGLjjSKhBSwrLQK9" name="Update Pegawai">
    <mxGraphModel dx="1773" dy="662" grid="1" gridSize="10" guides="1" tooltips="1" connect="1" arrows="1" fold="1" page="1" pageScale="1" pageWidth="827" pageHeight="1169" math="0" shadow="0">
      <root>
        <mxCell id="0" />
        <mxCell id="1" parent="0" />
        <mxCell id="82-ZWj1tiuq2LfcnE1Xa-3" style="edgeStyle=orthogonalEdgeStyle;rounded=0;orthogonalLoop=1;jettySize=auto;html=1;exitX=0.5;exitY=1;exitDx=0;exitDy=0;entryX=0.5;entryY=0;entryDx=0;entryDy=0;labelBackgroundColor=none;strokeColor=#09555B;fontColor=default;" parent="1" source="82-ZWj1tiuq2LfcnE1Xa-4" target="82-ZWj1tiuq2LfcnE1Xa-7" edge="1">
          <mxGeometry relative="1" as="geometry" />
        </mxCell>
        <mxCell id="82-ZWj1tiuq2LfcnE1Xa-4" value="" style="verticalLabelPosition=bottom;verticalAlign=top;html=1;shape=offPageConnector;rounded=0;size=0.5626249999999999;strokeColor=#82b366;fillColor=#d5e8d4;shadow=1;labelBackgroundColor=none;" parent="1" vertex="1">
          <mxGeometry x="385" y="70" width="80" height="80" as="geometry" />
        </mxCell>
        <mxCell id="82-ZWj1tiuq2LfcnE1Xa-5" value="&lt;div&gt;Update&amp;nbsp;&lt;/div&gt;&lt;div&gt;Pegawai&lt;/div&gt;" style="text;html=1;align=center;verticalAlign=middle;resizable=0;points=[];autosize=1;strokeColor=none;fillColor=none;labelBackgroundColor=none;fontColor=#1A1A1A;" parent="1" vertex="1">
          <mxGeometry x="390" y="80" width="70" height="40" as="geometry" />
        </mxCell>
        <mxCell id="82-ZWj1tiuq2LfcnE1Xa-6" value="" style="edgeStyle=orthogonalEdgeStyle;rounded=0;orthogonalLoop=1;jettySize=auto;html=1;labelBackgroundColor=none;strokeColor=#09555B;fontColor=default;" parent="1" source="82-ZWj1tiuq2LfcnE1Xa-7" target="82-ZWj1tiuq2LfcnE1Xa-12" edge="1">
          <mxGeometry relative="1" as="geometry" />
        </mxCell>
        <mxCell id="82-ZWj1tiuq2LfcnE1Xa-7" value="Input Nomor Pegawai Yang&lt;div&gt;&amp;nbsp;Ingin Di Update&amp;nbsp;&lt;/div&gt;" style="shape=parallelogram;perimeter=parallelogramPerimeter;whiteSpace=wrap;html=1;fixedSize=1;fillColor=#dae8fc;strokeColor=#6c8ebf;strokeWidth=2;shadow=1;labelBackgroundColor=none;" parent="1" vertex="1">
          <mxGeometry x="330" y="200" width="190" height="80" as="geometry" />
        </mxCell>
        <mxCell id="82-ZWj1tiuq2LfcnE1Xa-8" value="" style="edgeStyle=orthogonalEdgeStyle;rounded=0;orthogonalLoop=1;jettySize=auto;html=1;labelBackgroundColor=none;strokeColor=#09555B;fontColor=default;" parent="1" source="82-ZWj1tiuq2LfcnE1Xa-12" target="82-ZWj1tiuq2LfcnE1Xa-14" edge="1">
          <mxGeometry relative="1" as="geometry" />
        </mxCell>
        <mxCell id="ZMutiq6jPn54EdUlDOGv-2" value="True" style="edgeLabel;html=1;align=center;verticalAlign=middle;resizable=0;points=[];" vertex="1" connectable="0" parent="82-ZWj1tiuq2LfcnE1Xa-8">
          <mxGeometry x="-0.086" relative="1" as="geometry">
            <mxPoint as="offset" />
          </mxGeometry>
        </mxCell>
        <mxCell id="Tbqgh1F6FCXvOTriE4A9-1" value="Yes" style="edgeLabel;html=1;align=center;verticalAlign=middle;resizable=0;points=[];" vertex="1" connectable="0" parent="82-ZWj1tiuq2LfcnE1Xa-8">
          <mxGeometry x="-0.0645" y="1" relative="1" as="geometry">
            <mxPoint as="offset" />
          </mxGeometry>
        </mxCell>
        <mxCell id="82-ZWj1tiuq2LfcnE1Xa-10" value="" style="edgeStyle=orthogonalEdgeStyle;rounded=0;orthogonalLoop=1;jettySize=auto;html=1;labelBackgroundColor=none;strokeColor=#09555B;fontColor=default;" parent="1" source="82-ZWj1tiuq2LfcnE1Xa-12" target="82-ZWj1tiuq2LfcnE1Xa-16" edge="1">
          <mxGeometry relative="1" as="geometry" />
        </mxCell>
        <mxCell id="ZMutiq6jPn54EdUlDOGv-3" value="No" style="edgeLabel;html=1;align=center;verticalAlign=middle;resizable=0;points=[];" vertex="1" connectable="0" parent="82-ZWj1tiuq2LfcnE1Xa-10">
          <mxGeometry x="-0.0648" y="-1" relative="1" as="geometry">
            <mxPoint x="1" as="offset" />
          </mxGeometry>
        </mxCell>
        <mxCell id="82-ZWj1tiuq2LfcnE1Xa-12" value="" style="rhombus;whiteSpace=wrap;html=1;fillColor=#e1d5e7;strokeColor=#9673a6;strokeWidth=2;shadow=1;labelBackgroundColor=none;" parent="1" vertex="1">
          <mxGeometry x="362.5" y="360" width="125" height="80" as="geometry" />
        </mxCell>
        <mxCell id="82-ZWj1tiuq2LfcnE1Xa-14" value="Nomor pegawai tidak valid" style="shape=parallelogram;perimeter=parallelogramPerimeter;whiteSpace=wrap;html=1;fixedSize=1;fillColor=#dae8fc;strokeColor=#6c8ebf;strokeWidth=2;shadow=1;labelBackgroundColor=none;" parent="1" vertex="1">
          <mxGeometry x="570.5" y="370" width="179.5" height="60" as="geometry" />
        </mxCell>
        <mxCell id="82-ZWj1tiuq2LfcnE1Xa-15" value="" style="edgeStyle=orthogonalEdgeStyle;rounded=0;orthogonalLoop=1;jettySize=auto;html=1;labelBackgroundColor=none;strokeColor=#09555B;fontColor=default;" parent="1" source="82-ZWj1tiuq2LfcnE1Xa-16" target="82-ZWj1tiuq2LfcnE1Xa-20" edge="1">
          <mxGeometry relative="1" as="geometry" />
        </mxCell>
        <mxCell id="82-ZWj1tiuq2LfcnE1Xa-16" value="Input Nama Pegawai Baru&lt;div&gt;Input Jabatan Pegawai Baru&lt;/div&gt;&lt;div&gt;Input Waktu Masuk Pegawai Baru&lt;/div&gt;&lt;div&gt;Input Waktu Keluar Pegawai Baru&lt;/div&gt;&lt;div&gt;Input Hasil Kerja Pegawai Baru&lt;/div&gt;" style="shape=parallelogram;perimeter=parallelogramPerimeter;whiteSpace=wrap;html=1;fixedSize=1;fillColor=#dae8fc;strokeColor=#6c8ebf;strokeWidth=2;shadow=1;labelBackgroundColor=none;" parent="1" vertex="1">
          <mxGeometry x="10" y="355" width="254.5" height="90" as="geometry" />
        </mxCell>
        <mxCell id="82-ZWj1tiuq2LfcnE1Xa-17" value="" style="endArrow=classic;html=1;rounded=0;labelBackgroundColor=none;strokeColor=#09555B;fontColor=default;" parent="1" edge="1">
          <mxGeometry width="50" height="50" relative="1" as="geometry">
            <mxPoint x="700" y="420" as="sourcePoint" />
            <mxPoint x="760" y="420" as="targetPoint" />
          </mxGeometry>
        </mxCell>
        <mxCell id="82-ZWj1tiuq2LfcnE1Xa-18" value="" style="endArrow=classic;html=1;rounded=0;labelBackgroundColor=none;strokeColor=#09555B;fontColor=default;" parent="1" edge="1">
          <mxGeometry width="50" height="50" relative="1" as="geometry">
            <mxPoint x="-10" y="370" as="sourcePoint" />
            <mxPoint x="50" y="370" as="targetPoint" />
          </mxGeometry>
        </mxCell>
        <mxCell id="82-ZWj1tiuq2LfcnE1Xa-19" value="" style="edgeStyle=orthogonalEdgeStyle;rounded=0;orthogonalLoop=1;jettySize=auto;html=1;labelBackgroundColor=none;strokeColor=#09555B;fontColor=default;" parent="1" source="82-ZWj1tiuq2LfcnE1Xa-20" target="82-ZWj1tiuq2LfcnE1Xa-21" edge="1">
          <mxGeometry relative="1" as="geometry" />
        </mxCell>
        <mxCell id="82-ZWj1tiuq2LfcnE1Xa-20" value="Data berhasil diupdate" style="whiteSpace=wrap;html=1;fillColor=#FAD9D5;strokeColor=#D0CEE2;strokeWidth=2;shadow=1;labelBackgroundColor=none;fontColor=#1A1A1A;" parent="1" vertex="1">
          <mxGeometry x="77.25" y="520" width="120" height="60" as="geometry" />
        </mxCell>
        <mxCell id="82-ZWj1tiuq2LfcnE1Xa-21" value="" style="verticalLabelPosition=bottom;verticalAlign=top;html=1;shape=offPageConnector;rounded=0;size=0.5;strokeColor=#82b366;fillColor=#d5e8d4;shadow=1;labelBackgroundColor=none;" parent="1" vertex="1">
          <mxGeometry x="92.25" y="650" width="90" height="90" as="geometry" />
        </mxCell>
        <mxCell id="82-ZWj1tiuq2LfcnE1Xa-22" value="Menu Admin" style="text;html=1;align=center;verticalAlign=middle;resizable=0;points=[];autosize=1;strokeColor=none;fillColor=none;labelBackgroundColor=none;fontColor=#1A1A1A;" parent="1" vertex="1">
          <mxGeometry x="92.25" y="670" width="90" height="30" as="geometry" />
        </mxCell>
        <mxCell id="82-ZWj1tiuq2LfcnE1Xa-23" value="" style="endArrow=classic;html=1;rounded=0;strokeColor=#09555B;fontColor=#1A1A1A;exitX=0.864;exitY=0.278;exitDx=0;exitDy=0;exitPerimeter=0;" parent="1" edge="1">
          <mxGeometry width="50" height="50" relative="1" as="geometry">
            <mxPoint x="299.99799999999993" y="210.01999999999998" as="sourcePoint" />
            <mxPoint x="370.11" y="210" as="targetPoint" />
          </mxGeometry>
        </mxCell>
        <mxCell id="82-ZWj1tiuq2LfcnE1Xa-25" style="edgeStyle=orthogonalEdgeStyle;rounded=0;orthogonalLoop=1;jettySize=auto;html=1;entryX=0.979;entryY=0.43;entryDx=0;entryDy=0;entryPerimeter=0;" parent="1" source="82-ZWj1tiuq2LfcnE1Xa-14" target="82-ZWj1tiuq2LfcnE1Xa-21" edge="1">
          <mxGeometry relative="1" as="geometry">
            <Array as="points">
              <mxPoint x="660" y="689" />
            </Array>
          </mxGeometry>
        </mxCell>
        <mxCell id="wlhRkw4K4m1BsSAC53BP-4" value="&lt;h1 style=&quot;margin-top: 0px;&quot;&gt;&lt;span style=&quot;font-size: 12px; font-weight: 400;&quot;&gt;nomor&amp;nbsp;&lt;/span&gt;&lt;div style=&quot;font-size: 12px; font-weight: 400;&quot;&gt;== nomor pegawai&lt;/div&gt;&lt;/h1&gt;" style="text;html=1;whiteSpace=wrap;overflow=hidden;rounded=0;align=center;" vertex="1" parent="1">
          <mxGeometry x="335" y="360" width="180" height="120" as="geometry" />
        </mxCell>
      </root>
    </mxGraphModel>
  </diagram>
  <diagram id="lGGuYt6rXDZD7GYjg_7u" name="Hapus Pegawai">
    <mxGraphModel dx="728" dy="509" grid="1" gridSize="10" guides="1" tooltips="1" connect="1" arrows="1" fold="1" page="1" pageScale="1" pageWidth="827" pageHeight="1169" math="0" shadow="0">
      <root>
        <mxCell id="0" />
        <mxCell id="1" parent="0" />
        <mxCell id="GxakrQ-WZ8OMyvLS3gzv-1" style="edgeStyle=orthogonalEdgeStyle;rounded=0;orthogonalLoop=1;jettySize=auto;html=1;exitX=0.5;exitY=1;exitDx=0;exitDy=0;entryX=0.5;entryY=0;entryDx=0;entryDy=0;labelBackgroundColor=none;strokeColor=#09555B;fontColor=default;" parent="1" source="GxakrQ-WZ8OMyvLS3gzv-2" target="GxakrQ-WZ8OMyvLS3gzv-5" edge="1">
          <mxGeometry relative="1" as="geometry" />
        </mxCell>
        <mxCell id="GxakrQ-WZ8OMyvLS3gzv-2" value="" style="verticalLabelPosition=bottom;verticalAlign=top;html=1;shape=offPageConnector;rounded=0;size=0.5626249999999999;strokeColor=#82b366;fillColor=#d5e8d4;shadow=1;labelBackgroundColor=none;" parent="1" vertex="1">
          <mxGeometry x="385" y="70" width="80" height="80" as="geometry" />
        </mxCell>
        <mxCell id="GxakrQ-WZ8OMyvLS3gzv-3" value="&lt;div&gt;Hapus&amp;nbsp;&lt;/div&gt;&lt;div&gt;Pegawai&lt;/div&gt;" style="text;html=1;align=center;verticalAlign=middle;resizable=0;points=[];autosize=1;strokeColor=none;fillColor=none;labelBackgroundColor=none;fontColor=#1A1A1A;" parent="1" vertex="1">
          <mxGeometry x="390" y="80" width="70" height="40" as="geometry" />
        </mxCell>
        <mxCell id="GxakrQ-WZ8OMyvLS3gzv-4" value="" style="edgeStyle=orthogonalEdgeStyle;rounded=0;orthogonalLoop=1;jettySize=auto;html=1;labelBackgroundColor=none;strokeColor=#09555B;fontColor=default;" parent="1" source="GxakrQ-WZ8OMyvLS3gzv-5" target="GxakrQ-WZ8OMyvLS3gzv-10" edge="1">
          <mxGeometry relative="1" as="geometry" />
        </mxCell>
        <mxCell id="GxakrQ-WZ8OMyvLS3gzv-5" value="Pilih nomor pegawai yang ingin dihapus" style="shape=parallelogram;perimeter=parallelogramPerimeter;whiteSpace=wrap;html=1;fixedSize=1;fillColor=#dae8fc;strokeColor=#6c8ebf;strokeWidth=2;shadow=1;labelBackgroundColor=none;" parent="1" vertex="1">
          <mxGeometry x="330" y="200" width="190" height="80" as="geometry" />
        </mxCell>
        <mxCell id="GxakrQ-WZ8OMyvLS3gzv-6" value="" style="edgeStyle=orthogonalEdgeStyle;rounded=0;orthogonalLoop=1;jettySize=auto;html=1;labelBackgroundColor=none;strokeColor=#09555B;fontColor=default;" parent="1" source="GxakrQ-WZ8OMyvLS3gzv-10" target="GxakrQ-WZ8OMyvLS3gzv-11" edge="1">
          <mxGeometry relative="1" as="geometry" />
        </mxCell>
        <mxCell id="Wa1NNbOH_h08nAw8vCGU-8" value="Yes" style="edgeLabel;html=1;align=center;verticalAlign=middle;resizable=0;points=[];" vertex="1" connectable="0" parent="GxakrQ-WZ8OMyvLS3gzv-6">
          <mxGeometry x="-0.0799" relative="1" as="geometry">
            <mxPoint as="offset" />
          </mxGeometry>
        </mxCell>
        <mxCell id="Wa1NNbOH_h08nAw8vCGU-3" style="edgeStyle=orthogonalEdgeStyle;rounded=0;orthogonalLoop=1;jettySize=auto;html=1;exitX=0.5;exitY=1;exitDx=0;exitDy=0;entryX=0.5;entryY=0;entryDx=0;entryDy=0;" edge="1" parent="1" source="GxakrQ-WZ8OMyvLS3gzv-10" target="GxakrQ-WZ8OMyvLS3gzv-14">
          <mxGeometry relative="1" as="geometry" />
        </mxCell>
        <mxCell id="Wa1NNbOH_h08nAw8vCGU-7" value="No" style="edgeLabel;html=1;align=center;verticalAlign=middle;resizable=0;points=[];" vertex="1" connectable="0" parent="Wa1NNbOH_h08nAw8vCGU-3">
          <mxGeometry x="-0.5758" relative="1" as="geometry">
            <mxPoint y="8" as="offset" />
          </mxGeometry>
        </mxCell>
        <mxCell id="GxakrQ-WZ8OMyvLS3gzv-10" value="nomor = nomor pegawai" style="rhombus;whiteSpace=wrap;html=1;fillColor=#e1d5e7;strokeColor=#9673a6;strokeWidth=2;shadow=1;labelBackgroundColor=none;" parent="1" vertex="1">
          <mxGeometry x="590" y="200" width="125" height="80" as="geometry" />
        </mxCell>
        <mxCell id="Wa1NNbOH_h08nAw8vCGU-6" style="edgeStyle=orthogonalEdgeStyle;rounded=0;orthogonalLoop=1;jettySize=auto;html=1;exitX=0.5;exitY=1;exitDx=0;exitDy=0;entryX=1;entryY=0.5;entryDx=0;entryDy=0;" edge="1" parent="1" source="GxakrQ-WZ8OMyvLS3gzv-11" target="GxakrQ-WZ8OMyvLS3gzv-15">
          <mxGeometry relative="1" as="geometry" />
        </mxCell>
        <mxCell id="GxakrQ-WZ8OMyvLS3gzv-11" value="Nomor pegawai tidak valid" style="shape=parallelogram;perimeter=parallelogramPerimeter;whiteSpace=wrap;html=1;fixedSize=1;fillColor=#dae8fc;strokeColor=#6c8ebf;strokeWidth=2;shadow=1;labelBackgroundColor=none;" parent="1" vertex="1">
          <mxGeometry x="800" y="210" width="179.5" height="60" as="geometry" />
        </mxCell>
        <mxCell id="GxakrQ-WZ8OMyvLS3gzv-12" value="" style="endArrow=classic;html=1;rounded=0;labelBackgroundColor=none;strokeColor=#09555B;fontColor=default;" parent="1" edge="1">
          <mxGeometry width="50" height="50" relative="1" as="geometry">
            <mxPoint x="940" y="260" as="sourcePoint" />
            <mxPoint x="1000" y="260" as="targetPoint" />
          </mxGeometry>
        </mxCell>
        <mxCell id="Wa1NNbOH_h08nAw8vCGU-4" style="edgeStyle=orthogonalEdgeStyle;rounded=0;orthogonalLoop=1;jettySize=auto;html=1;exitX=0.5;exitY=1;exitDx=0;exitDy=0;entryX=0.5;entryY=0;entryDx=0;entryDy=0;" edge="1" parent="1" source="GxakrQ-WZ8OMyvLS3gzv-14" target="GxakrQ-WZ8OMyvLS3gzv-18">
          <mxGeometry relative="1" as="geometry" />
        </mxCell>
        <mxCell id="GxakrQ-WZ8OMyvLS3gzv-14" value="menghapus pegawai" style="whiteSpace=wrap;html=1;fillColor=#FAD9D5;strokeColor=#D0CEE2;strokeWidth=2;shadow=1;labelBackgroundColor=none;fontColor=#1A1A1A;" parent="1" vertex="1">
          <mxGeometry x="592.5" y="335" width="120" height="60" as="geometry" />
        </mxCell>
        <mxCell id="GxakrQ-WZ8OMyvLS3gzv-15" value="" style="verticalLabelPosition=bottom;verticalAlign=top;html=1;shape=offPageConnector;rounded=0;size=0.5;strokeColor=#82b366;fillColor=#d5e8d4;shadow=1;labelBackgroundColor=none;" parent="1" vertex="1">
          <mxGeometry x="607.5" y="682" width="90" height="90" as="geometry" />
        </mxCell>
        <mxCell id="GxakrQ-WZ8OMyvLS3gzv-16" value="Menu Admin" style="text;html=1;align=center;verticalAlign=middle;resizable=0;points=[];autosize=1;strokeColor=none;fillColor=none;labelBackgroundColor=none;fontColor=#1A1A1A;" parent="1" vertex="1">
          <mxGeometry x="607.5" y="700" width="90" height="30" as="geometry" />
        </mxCell>
        <mxCell id="GxakrQ-WZ8OMyvLS3gzv-17" value="" style="edgeStyle=orthogonalEdgeStyle;rounded=0;orthogonalLoop=1;jettySize=auto;html=1;labelBackgroundColor=none;strokeColor=#09555B;fontColor=default;" parent="1" source="GxakrQ-WZ8OMyvLS3gzv-18" target="GxakrQ-WZ8OMyvLS3gzv-20" edge="1">
          <mxGeometry relative="1" as="geometry" />
        </mxCell>
        <mxCell id="GxakrQ-WZ8OMyvLS3gzv-18" value="jumlah pegawai -1" style="whiteSpace=wrap;html=1;fillColor=#FAD9D5;strokeColor=#D0CEE2;strokeWidth=2;shadow=1;labelBackgroundColor=none;fontColor=#1A1A1A;" parent="1" vertex="1">
          <mxGeometry x="592.5" y="449" width="120" height="60" as="geometry" />
        </mxCell>
        <mxCell id="GxakrQ-WZ8OMyvLS3gzv-19" style="edgeStyle=orthogonalEdgeStyle;rounded=0;orthogonalLoop=1;jettySize=auto;html=1;exitX=0.5;exitY=1;exitDx=0;exitDy=0;entryX=0.5;entryY=0;entryDx=0;entryDy=0;labelBackgroundColor=none;strokeColor=#09555B;fontColor=default;" parent="1" source="GxakrQ-WZ8OMyvLS3gzv-20" target="GxakrQ-WZ8OMyvLS3gzv-15" edge="1">
          <mxGeometry relative="1" as="geometry" />
        </mxCell>
        <mxCell id="GxakrQ-WZ8OMyvLS3gzv-20" value="Data pegawai berhasil dihapus" style="shape=parallelogram;perimeter=parallelogramPerimeter;whiteSpace=wrap;html=1;fixedSize=1;fillColor=#dae8fc;strokeColor=#6c8ebf;strokeWidth=2;shadow=1;labelBackgroundColor=none;" parent="1" vertex="1">
          <mxGeometry x="577.5" y="562" width="150" height="60" as="geometry" />
        </mxCell>
        <mxCell id="GxakrQ-WZ8OMyvLS3gzv-21" value="" style="endArrow=classic;html=1;rounded=0;labelBackgroundColor=none;strokeColor=#09555B;fontColor=default;" parent="1" edge="1">
          <mxGeometry width="50" height="50" relative="1" as="geometry">
            <mxPoint x="670" y="620" as="sourcePoint" />
            <mxPoint x="730" y="620" as="targetPoint" />
          </mxGeometry>
        </mxCell>
        <mxCell id="GxakrQ-WZ8OMyvLS3gzv-23" value="" style="endArrow=classic;html=1;rounded=0;strokeColor=#09555B;fontColor=#1A1A1A;" parent="1" edge="1">
          <mxGeometry width="50" height="50" relative="1" as="geometry">
            <mxPoint x="310" y="210" as="sourcePoint" />
            <mxPoint x="390" y="210" as="targetPoint" />
          </mxGeometry>
        </mxCell>
      </root>
    </mxGraphModel>
  </diagram>
  <diagram id="Xpd_m0BrItp4VKP47YSa" name="Sorting Data">
    <mxGraphModel dx="450" dy="315" grid="1" gridSize="10" guides="1" tooltips="1" connect="1" arrows="1" fold="1" page="1" pageScale="1" pageWidth="827" pageHeight="1169" math="0" shadow="0">
      <root>
        <mxCell id="0" />
        <mxCell id="1" parent="0" />
        <mxCell id="QO5y9YDUylD5xykcLRHr-1" value="" style="verticalLabelPosition=bottom;verticalAlign=top;html=1;shape=offPageConnector;rounded=0;size=0.5;" parent="1" vertex="1">
          <mxGeometry x="361.5" y="190" width="77" height="90" as="geometry" />
        </mxCell>
        <mxCell id="QO5y9YDUylD5xykcLRHr-2" value="Sorting&lt;div&gt;Data&lt;/div&gt;" style="text;html=1;align=center;verticalAlign=middle;resizable=0;points=[];autosize=1;strokeColor=none;fillColor=none;" parent="1" vertex="1">
          <mxGeometry x="369" y="200" width="60" height="40" as="geometry" />
        </mxCell>
        <mxCell id="QO5y9YDUylD5xykcLRHr-3" value="" style="edgeStyle=orthogonalEdgeStyle;rounded=0;orthogonalLoop=1;jettySize=auto;html=1;" parent="1" target="QO5y9YDUylD5xykcLRHr-8" edge="1">
          <mxGeometry relative="1" as="geometry">
            <mxPoint x="400" y="280" as="sourcePoint" />
          </mxGeometry>
        </mxCell>
        <mxCell id="QO5y9YDUylD5xykcLRHr-4" value="" style="edgeStyle=orthogonalEdgeStyle;rounded=0;orthogonalLoop=1;jettySize=auto;html=1;" parent="1" source="QO5y9YDUylD5xykcLRHr-8" target="QO5y9YDUylD5xykcLRHr-13" edge="1">
          <mxGeometry relative="1" as="geometry" />
        </mxCell>
        <mxCell id="fXIAAs2VTEo982KuVU5V-2" value="No" style="edgeLabel;html=1;align=center;verticalAlign=middle;resizable=0;points=[];" vertex="1" connectable="0" parent="QO5y9YDUylD5xykcLRHr-4">
          <mxGeometry x="-0.2176" relative="1" as="geometry">
            <mxPoint y="3" as="offset" />
          </mxGeometry>
        </mxCell>
        <mxCell id="QO5y9YDUylD5xykcLRHr-6" value="" style="edgeStyle=orthogonalEdgeStyle;rounded=0;orthogonalLoop=1;jettySize=auto;html=1;" parent="1" source="QO5y9YDUylD5xykcLRHr-8" target="QO5y9YDUylD5xykcLRHr-17" edge="1">
          <mxGeometry relative="1" as="geometry" />
        </mxCell>
        <mxCell id="fXIAAs2VTEo982KuVU5V-1" value="Yes" style="edgeLabel;html=1;align=center;verticalAlign=middle;resizable=0;points=[];" vertex="1" connectable="0" parent="QO5y9YDUylD5xykcLRHr-6">
          <mxGeometry x="-0.154" relative="1" as="geometry">
            <mxPoint as="offset" />
          </mxGeometry>
        </mxCell>
        <mxCell id="QO5y9YDUylD5xykcLRHr-8" value="&lt;div&gt;&lt;br&gt;&lt;/div&gt;&lt;div&gt;&lt;br&gt;&lt;/div&gt;&lt;div&gt;Pilihan == 1&lt;/div&gt;" style="rhombus;whiteSpace=wrap;html=1;verticalAlign=top;fillColor=#f8cecc;strokeColor=#b85450;rounded=0;" parent="1" vertex="1">
          <mxGeometry x="360" y="355" width="80" height="80" as="geometry" />
        </mxCell>
        <mxCell id="QO5y9YDUylD5xykcLRHr-9" value="" style="edgeStyle=orthogonalEdgeStyle;rounded=0;orthogonalLoop=1;jettySize=auto;html=1;" parent="1" source="QO5y9YDUylD5xykcLRHr-13" target="QO5y9YDUylD5xykcLRHr-16" edge="1">
          <mxGeometry relative="1" as="geometry" />
        </mxCell>
        <mxCell id="fXIAAs2VTEo982KuVU5V-4" value="No" style="edgeLabel;html=1;align=center;verticalAlign=middle;resizable=0;points=[];" vertex="1" connectable="0" parent="QO5y9YDUylD5xykcLRHr-9">
          <mxGeometry x="-0.162" relative="1" as="geometry">
            <mxPoint as="offset" />
          </mxGeometry>
        </mxCell>
        <mxCell id="QO5y9YDUylD5xykcLRHr-11" value="" style="edgeStyle=orthogonalEdgeStyle;rounded=0;orthogonalLoop=1;jettySize=auto;html=1;" parent="1" source="QO5y9YDUylD5xykcLRHr-13" target="QO5y9YDUylD5xykcLRHr-19" edge="1">
          <mxGeometry relative="1" as="geometry" />
        </mxCell>
        <mxCell id="fXIAAs2VTEo982KuVU5V-3" value="Yes" style="edgeLabel;html=1;align=center;verticalAlign=middle;resizable=0;points=[];" vertex="1" connectable="0" parent="QO5y9YDUylD5xykcLRHr-11">
          <mxGeometry x="-0.1422" relative="1" as="geometry">
            <mxPoint x="-4" as="offset" />
          </mxGeometry>
        </mxCell>
        <mxCell id="QO5y9YDUylD5xykcLRHr-13" value="&lt;div&gt;&lt;br&gt;&lt;/div&gt;&lt;div&gt;&lt;br&gt;&lt;/div&gt;&lt;div&gt;Pilihan == 2&lt;/div&gt;" style="rhombus;whiteSpace=wrap;html=1;verticalAlign=top;fillColor=#f8cecc;strokeColor=#b85450;rounded=0;" parent="1" vertex="1">
          <mxGeometry x="360" y="515" width="80" height="80" as="geometry" />
        </mxCell>
        <mxCell id="QO5y9YDUylD5xykcLRHr-14" value="" style="edgeStyle=orthogonalEdgeStyle;rounded=0;orthogonalLoop=1;jettySize=auto;html=1;" parent="1" source="QO5y9YDUylD5xykcLRHr-16" target="QO5y9YDUylD5xykcLRHr-20" edge="1">
          <mxGeometry relative="1" as="geometry" />
        </mxCell>
        <mxCell id="fXIAAs2VTEo982KuVU5V-5" value="Yes" style="edgeLabel;html=1;align=center;verticalAlign=middle;resizable=0;points=[];" vertex="1" connectable="0" parent="QO5y9YDUylD5xykcLRHr-14">
          <mxGeometry x="-0.0762" y="1" relative="1" as="geometry">
            <mxPoint as="offset" />
          </mxGeometry>
        </mxCell>
        <mxCell id="QO5y9YDUylD5xykcLRHr-15" value="" style="edgeStyle=orthogonalEdgeStyle;rounded=0;orthogonalLoop=1;jettySize=auto;html=1;" parent="1" source="QO5y9YDUylD5xykcLRHr-16" target="QO5y9YDUylD5xykcLRHr-23" edge="1">
          <mxGeometry relative="1" as="geometry" />
        </mxCell>
        <mxCell id="fXIAAs2VTEo982KuVU5V-6" value="No" style="edgeLabel;html=1;align=center;verticalAlign=middle;resizable=0;points=[];" vertex="1" connectable="0" parent="QO5y9YDUylD5xykcLRHr-15">
          <mxGeometry x="-0.1852" relative="1" as="geometry">
            <mxPoint as="offset" />
          </mxGeometry>
        </mxCell>
        <mxCell id="QO5y9YDUylD5xykcLRHr-16" value="&lt;div&gt;&lt;br&gt;&lt;/div&gt;&lt;div&gt;&lt;br&gt;&lt;/div&gt;&lt;div&gt;Pilihan == 3&lt;/div&gt;" style="rhombus;whiteSpace=wrap;html=1;verticalAlign=top;fillColor=#f8cecc;strokeColor=#b85450;rounded=0;" parent="1" vertex="1">
          <mxGeometry x="360" y="675" width="80" height="80" as="geometry" />
        </mxCell>
        <mxCell id="QO5y9YDUylD5xykcLRHr-17" value="&lt;div&gt;&lt;span style=&quot;background-color: transparent; color: light-dark(rgb(0, 0, 0), rgb(255, 255, 255));&quot;&gt;Data berhasil diurutkan berdasarkan&amp;nbsp;&lt;/span&gt;&lt;/div&gt;&lt;div&gt;nama (Z - A)!&lt;/div&gt;&lt;div&gt;&lt;br&gt;&lt;/div&gt;&lt;div&gt;&lt;br&gt;&lt;/div&gt;" style="shape=parallelogram;perimeter=parallelogramPerimeter;whiteSpace=wrap;html=1;fixedSize=1;verticalAlign=top;fillColor=#dae8fc;strokeColor=#6c8ebf;rounded=0;" parent="1" vertex="1">
          <mxGeometry x="510" y="361.25" width="160" height="67.5" as="geometry" />
        </mxCell>
        <mxCell id="QO5y9YDUylD5xykcLRHr-18" value="" style="endArrow=classic;html=1;rounded=0;" parent="1" edge="1">
          <mxGeometry width="50" height="50" relative="1" as="geometry">
            <mxPoint x="600" y="420" as="sourcePoint" />
            <mxPoint x="660" y="420" as="targetPoint" />
          </mxGeometry>
        </mxCell>
        <mxCell id="QO5y9YDUylD5xykcLRHr-19" value="&lt;div&gt;&lt;br&gt;&lt;/div&gt;Data berhasil diurutkan Waktu Masuk&lt;div&gt;&amp;nbsp;(terbesar ke terkecil)!&lt;/div&gt;" style="shape=parallelogram;perimeter=parallelogramPerimeter;whiteSpace=wrap;html=1;fixedSize=1;verticalAlign=top;fillColor=#dae8fc;strokeColor=#6c8ebf;rounded=0;" parent="1" vertex="1">
          <mxGeometry x="500" y="516.25" width="150" height="77.5" as="geometry" />
        </mxCell>
        <mxCell id="QO5y9YDUylD5xykcLRHr-20" value="&lt;div&gt;&lt;span style=&quot;background-color: transparent; color: light-dark(rgb(0, 0, 0), rgb(255, 255, 255));&quot;&gt;Data berhasil diurutkan berdasarkan panjang Nama&lt;/span&gt;&lt;/div&gt;&lt;div&gt;&lt;br&gt;&lt;/div&gt;" style="shape=parallelogram;perimeter=parallelogramPerimeter;whiteSpace=wrap;html=1;fixedSize=1;verticalAlign=top;fillColor=#dae8fc;strokeColor=#6c8ebf;rounded=0;" parent="1" vertex="1">
          <mxGeometry x="500" y="682.5" width="150" height="65" as="geometry" />
        </mxCell>
        <mxCell id="QO5y9YDUylD5xykcLRHr-21" value="" style="endArrow=classic;html=1;rounded=0;" parent="1" edge="1">
          <mxGeometry width="50" height="50" relative="1" as="geometry">
            <mxPoint x="600" y="584" as="sourcePoint" />
            <mxPoint x="660" y="584" as="targetPoint" />
          </mxGeometry>
        </mxCell>
        <mxCell id="QO5y9YDUylD5xykcLRHr-22" value="" style="endArrow=classic;html=1;rounded=0;" parent="1" edge="1">
          <mxGeometry width="50" height="50" relative="1" as="geometry">
            <mxPoint x="590" y="740" as="sourcePoint" />
            <mxPoint x="650" y="740" as="targetPoint" />
          </mxGeometry>
        </mxCell>
        <mxCell id="QO5y9YDUylD5xykcLRHr-23" value="" style="verticalLabelPosition=bottom;verticalAlign=top;html=1;shape=offPageConnector;rounded=0;size=0.5;fillColor=#d5e8d4;strokeColor=#82b366;" parent="1" vertex="1">
          <mxGeometry x="370" y="810" width="60" height="60" as="geometry" />
        </mxCell>
        <mxCell id="QO5y9YDUylD5xykcLRHr-24" value="4" style="text;html=1;align=center;verticalAlign=middle;resizable=0;points=[];autosize=1;strokeColor=none;fillColor=none;" parent="1" vertex="1">
          <mxGeometry x="384" y="825" width="30" height="30" as="geometry" />
        </mxCell>
      </root>
    </mxGraphModel>
  </diagram>
  <diagram id="4YXdt21mtri-hTWxgjJl" name="Reset Data">
    <mxGraphModel dx="946" dy="662" grid="1" gridSize="10" guides="1" tooltips="1" connect="1" arrows="1" fold="1" page="1" pageScale="1" pageWidth="827" pageHeight="1169" math="0" shadow="0">
      <root>
        <mxCell id="0" />
        <mxCell id="1" parent="0" />
        <mxCell id="h_IzOyVH36X794IFfcRY-1" style="edgeStyle=orthogonalEdgeStyle;rounded=0;orthogonalLoop=1;jettySize=auto;html=1;exitX=0.5;exitY=1;exitDx=0;exitDy=0;entryX=0.5;entryY=0;entryDx=0;entryDy=0;labelBackgroundColor=none;strokeColor=#09555B;fontColor=default;" parent="1" source="h_IzOyVH36X794IFfcRY-2" target="h_IzOyVH36X794IFfcRY-5" edge="1">
          <mxGeometry relative="1" as="geometry" />
        </mxCell>
        <mxCell id="h_IzOyVH36X794IFfcRY-2" value="" style="verticalLabelPosition=bottom;verticalAlign=top;html=1;shape=offPageConnector;rounded=0;size=0.5626249999999999;strokeColor=#82b366;fillColor=#d5e8d4;shadow=1;labelBackgroundColor=none;" parent="1" vertex="1">
          <mxGeometry x="385" y="60" width="80" height="80" as="geometry" />
        </mxCell>
        <mxCell id="h_IzOyVH36X794IFfcRY-3" value="Reset&amp;nbsp;&lt;div&gt;Data&amp;nbsp;&lt;/div&gt;" style="text;html=1;align=center;verticalAlign=middle;resizable=0;points=[];autosize=1;strokeColor=none;fillColor=none;labelBackgroundColor=none;fontColor=#1A1A1A;" parent="1" vertex="1">
          <mxGeometry x="395" y="70" width="60" height="40" as="geometry" />
        </mxCell>
        <mxCell id="h_IzOyVH36X794IFfcRY-4" style="edgeStyle=orthogonalEdgeStyle;rounded=0;orthogonalLoop=1;jettySize=auto;html=1;exitX=0.5;exitY=1;exitDx=0;exitDy=0;entryX=0.5;entryY=0;entryDx=0;entryDy=0;labelBackgroundColor=none;strokeColor=#09555B;fontColor=default;" parent="1" source="h_IzOyVH36X794IFfcRY-5" target="h_IzOyVH36X794IFfcRY-6" edge="1">
          <mxGeometry relative="1" as="geometry" />
        </mxCell>
        <mxCell id="h_IzOyVH36X794IFfcRY-12" value="" style="edgeStyle=orthogonalEdgeStyle;rounded=0;orthogonalLoop=1;jettySize=auto;html=1;" parent="1" source="h_IzOyVH36X794IFfcRY-5" target="h_IzOyVH36X794IFfcRY-11" edge="1">
          <mxGeometry relative="1" as="geometry" />
        </mxCell>
        <mxCell id="h_IzOyVH36X794IFfcRY-5" value="Apakah yakin akan meriset&lt;div&gt;seluruh data pegawai ?&lt;/div&gt;" style="shape=parallelogram;perimeter=parallelogramPerimeter;whiteSpace=wrap;html=1;fixedSize=1;fillColor=#dae8fc;strokeColor=#6c8ebf;strokeWidth=2;shadow=1;labelBackgroundColor=none;" parent="1" vertex="1">
          <mxGeometry x="340" y="200" width="170" height="80" as="geometry" />
        </mxCell>
        <mxCell id="h_IzOyVH36X794IFfcRY-6" value="" style="verticalLabelPosition=bottom;verticalAlign=top;html=1;shape=offPageConnector;rounded=0;size=0.5;strokeColor=#82b366;fillColor=#d5e8d4;shadow=1;labelBackgroundColor=none;" parent="1" vertex="1">
          <mxGeometry x="380" y="480" width="90" height="90" as="geometry" />
        </mxCell>
        <mxCell id="h_IzOyVH36X794IFfcRY-8" value="" style="endArrow=classic;html=1;rounded=0;labelBackgroundColor=none;strokeColor=#09555B;fontColor=default;" parent="1" edge="1">
          <mxGeometry width="50" height="50" relative="1" as="geometry">
            <mxPoint x="325" y="210" as="sourcePoint" />
            <mxPoint x="385" y="210" as="targetPoint" />
          </mxGeometry>
        </mxCell>
        <mxCell id="h_IzOyVH36X794IFfcRY-11" value="Apakah yakin akan meriset&lt;div&gt;seluruh data pegawai ?&lt;/div&gt;" style="shape=parallelogram;perimeter=parallelogramPerimeter;whiteSpace=wrap;html=1;fixedSize=1;fillColor=#dae8fc;strokeColor=#6c8ebf;strokeWidth=2;shadow=1;labelBackgroundColor=none;" parent="1" vertex="1">
          <mxGeometry x="340" y="360" width="170" height="80" as="geometry" />
        </mxCell>
        <mxCell id="h_IzOyVH36X794IFfcRY-13" value="Menu&amp;nbsp;&lt;div&gt;Admin&lt;/div&gt;" style="text;html=1;align=center;verticalAlign=middle;resizable=0;points=[];autosize=1;strokeColor=none;fillColor=none;" parent="1" vertex="1">
          <mxGeometry x="395" y="490" width="60" height="40" as="geometry" />
        </mxCell>
      </root>
    </mxGraphModel>
  </diagram>
  <diagram id="FrkLj4dy8_qv4b7dANS2" name="Menu Absensi Admin">
    <mxGraphModel dx="946" dy="662" grid="1" gridSize="10" guides="1" tooltips="1" connect="1" arrows="1" fold="1" page="1" pageScale="1" pageWidth="827" pageHeight="1169" math="0" shadow="0">
      <root>
        <mxCell id="0" />
        <mxCell id="1" parent="0" />
        <mxCell id="U-Lf-7uIXMq8NGO_R7Nq-4" value="" style="edgeStyle=orthogonalEdgeStyle;rounded=0;orthogonalLoop=1;jettySize=auto;html=1;" parent="1" source="U-Lf-7uIXMq8NGO_R7Nq-1" target="U-Lf-7uIXMq8NGO_R7Nq-3" edge="1">
          <mxGeometry relative="1" as="geometry" />
        </mxCell>
        <mxCell id="U-Lf-7uIXMq8NGO_R7Nq-1" value="" style="verticalLabelPosition=bottom;verticalAlign=top;html=1;shape=offPageConnector;rounded=0;size=0.5;" parent="1" vertex="1">
          <mxGeometry x="400" y="10" width="80" height="80" as="geometry" />
        </mxCell>
        <mxCell id="U-Lf-7uIXMq8NGO_R7Nq-2" value="Absen&amp;nbsp;&lt;div&gt;Pegawai&lt;/div&gt;" style="text;html=1;align=center;verticalAlign=middle;resizable=0;points=[];autosize=1;strokeColor=none;fillColor=none;" parent="1" vertex="1">
          <mxGeometry x="405" y="20" width="70" height="40" as="geometry" />
        </mxCell>
        <mxCell id="U-Lf-7uIXMq8NGO_R7Nq-7" value="" style="edgeStyle=orthogonalEdgeStyle;rounded=0;orthogonalLoop=1;jettySize=auto;html=1;" parent="1" source="U-Lf-7uIXMq8NGO_R7Nq-3" target="U-Lf-7uIXMq8NGO_R7Nq-6" edge="1">
          <mxGeometry relative="1" as="geometry" />
        </mxCell>
        <mxCell id="U-Lf-7uIXMq8NGO_R7Nq-3" value="Input Nomor&lt;div&gt;Pegawai&amp;nbsp;&lt;/div&gt;&lt;div&gt;Yang Ingin Di&amp;nbsp;&lt;/div&gt;&lt;div&gt;Absen&lt;/div&gt;" style="shape=parallelogram;perimeter=parallelogramPerimeter;whiteSpace=wrap;html=1;fixedSize=1;verticalAlign=top;rounded=0;" parent="1" vertex="1">
          <mxGeometry x="375" y="147" width="130" height="70" as="geometry" />
        </mxCell>
        <mxCell id="U-Lf-7uIXMq8NGO_R7Nq-5" value="" style="endArrow=classic;html=1;rounded=0;" parent="1" edge="1">
          <mxGeometry width="50" height="50" relative="1" as="geometry">
            <mxPoint x="340" y="210" as="sourcePoint" />
            <mxPoint x="390" y="210" as="targetPoint" />
          </mxGeometry>
        </mxCell>
        <mxCell id="U-Lf-7uIXMq8NGO_R7Nq-10" value="" style="edgeStyle=orthogonalEdgeStyle;rounded=0;orthogonalLoop=1;jettySize=auto;html=1;" parent="1" source="U-Lf-7uIXMq8NGO_R7Nq-6" target="U-Lf-7uIXMq8NGO_R7Nq-9" edge="1">
          <mxGeometry relative="1" as="geometry" />
        </mxCell>
        <mxCell id="U-Lf-7uIXMq8NGO_R7Nq-6" value="Pegawai Berhasil&amp;nbsp;&lt;div&gt;Di&lt;/div&gt;&lt;div&gt;Absen&lt;/div&gt;" style="rounded=0;whiteSpace=wrap;html=1;verticalAlign=top;" parent="1" vertex="1">
          <mxGeometry x="380" y="279" width="120" height="60" as="geometry" />
        </mxCell>
        <mxCell id="U-Lf-7uIXMq8NGO_R7Nq-8" value="" style="verticalLabelPosition=bottom;verticalAlign=top;html=1;shape=offPageConnector;rounded=0;size=0.5;" parent="1" vertex="1">
          <mxGeometry x="410" y="399" width="60" height="60" as="geometry" />
        </mxCell>
        <mxCell id="U-Lf-7uIXMq8NGO_R7Nq-9" value="Menu&amp;nbsp;&lt;div&gt;Admin&lt;/div&gt;" style="text;html=1;align=center;verticalAlign=middle;resizable=0;points=[];autosize=1;strokeColor=none;fillColor=none;" parent="1" vertex="1">
          <mxGeometry x="410" y="402" width="60" height="40" as="geometry" />
        </mxCell>
      </root>
    </mxGraphModel>
  </diagram>
  <diagram id="HyiJPO1F2C4x_ckk5W0t" name="Menu Hasil Kerja">
    <mxGraphModel dx="946" dy="662" grid="1" gridSize="10" guides="1" tooltips="1" connect="1" arrows="1" fold="1" page="1" pageScale="1" pageWidth="827" pageHeight="1169" math="0" shadow="0">
      <root>
        <mxCell id="0" />
        <mxCell id="1" parent="0" />
        <mxCell id="Lt4KWhCRL9k1oG9l6Y6y-4" value="" style="edgeStyle=orthogonalEdgeStyle;rounded=0;orthogonalLoop=1;jettySize=auto;html=1;" parent="1" source="Lt4KWhCRL9k1oG9l6Y6y-1" target="Lt4KWhCRL9k1oG9l6Y6y-3" edge="1">
          <mxGeometry relative="1" as="geometry" />
        </mxCell>
        <mxCell id="Lt4KWhCRL9k1oG9l6Y6y-1" value="" style="verticalLabelPosition=bottom;verticalAlign=top;html=1;shape=offPageConnector;rounded=0;size=0.5;" parent="1" vertex="1">
          <mxGeometry x="414" y="10" width="86" height="90" as="geometry" />
        </mxCell>
        <mxCell id="Lt4KWhCRL9k1oG9l6Y6y-2" value="Menu Hasil&amp;nbsp;&lt;div&gt;Kerja&lt;/div&gt;" style="text;html=1;align=center;verticalAlign=middle;resizable=0;points=[];autosize=1;strokeColor=none;fillColor=none;" parent="1" vertex="1">
          <mxGeometry x="412" y="30" width="90" height="40" as="geometry" />
        </mxCell>
        <mxCell id="Lt4KWhCRL9k1oG9l6Y6y-7" value="" style="edgeStyle=orthogonalEdgeStyle;rounded=0;orthogonalLoop=1;jettySize=auto;html=1;" parent="1" source="Lt4KWhCRL9k1oG9l6Y6y-3" target="Lt4KWhCRL9k1oG9l6Y6y-6" edge="1">
          <mxGeometry relative="1" as="geometry" />
        </mxCell>
        <mxCell id="Lt4KWhCRL9k1oG9l6Y6y-3" value="" style="shape=parallelogram;perimeter=parallelogramPerimeter;whiteSpace=wrap;html=1;fixedSize=1;verticalAlign=top;rounded=0;" parent="1" vertex="1">
          <mxGeometry x="397" y="150" width="120" height="60" as="geometry" />
        </mxCell>
        <mxCell id="Lt4KWhCRL9k1oG9l6Y6y-5" value="" style="endArrow=classic;html=1;rounded=0;" parent="1" edge="1">
          <mxGeometry width="50" height="50" relative="1" as="geometry">
            <mxPoint x="480" y="205" as="sourcePoint" />
            <mxPoint x="530" y="205" as="targetPoint" />
          </mxGeometry>
        </mxCell>
        <mxCell id="Lt4KWhCRL9k1oG9l6Y6y-6" value="" style="verticalLabelPosition=bottom;verticalAlign=top;html=1;shape=offPageConnector;rounded=0;size=0.5;" parent="1" vertex="1">
          <mxGeometry x="420.5" y="268" width="73" height="80" as="geometry" />
        </mxCell>
        <mxCell id="Lt4KWhCRL9k1oG9l6Y6y-9" value="Menu&lt;div&gt;Admin&lt;/div&gt;" style="text;html=1;align=center;verticalAlign=middle;resizable=0;points=[];autosize=1;strokeColor=none;fillColor=none;" parent="1" vertex="1">
          <mxGeometry x="427" y="280" width="60" height="40" as="geometry" />
        </mxCell>
        <mxCell id="-B4KaMgYb7oSmdfdA0SL-1" value="&lt;h1 style=&quot;margin-top: 0px;&quot;&gt;&lt;font style=&quot;font-weight: 400; text-align: center; font-size: 11px;&quot;&gt;Menampilkan Hasil&lt;/font&gt;&lt;div style=&quot;font-size: 12px; font-weight: 400; text-align: center;&quot;&gt;&lt;font style=&quot;font-size: 11px;&quot;&gt;Kerja&lt;/font&gt;&lt;/div&gt;&lt;div style=&quot;font-size: 12px; font-weight: 400; text-align: center;&quot;&gt;&lt;font style=&quot;font-size: 11px;&quot;&gt;Pegawai&lt;/font&gt;&lt;/div&gt;&lt;/h1&gt;" style="text;html=1;whiteSpace=wrap;overflow=hidden;rounded=0;" vertex="1" parent="1">
          <mxGeometry x="412" y="140" width="100" height="80" as="geometry" />
        </mxCell>
      </root>
    </mxGraphModel>
  </diagram>
  <diagram id="xuF6e7RoSxp9pgkZwEjL" name="Menu Absensi Pegawai">
    <mxGraphModel dx="946" dy="662" grid="1" gridSize="10" guides="1" tooltips="1" connect="1" arrows="1" fold="1" page="1" pageScale="1" pageWidth="827" pageHeight="1169" math="0" shadow="0">
      <root>
        <mxCell id="0" />
        <mxCell id="1" parent="0" />
        <mxCell id="Nu7qu45WXtXJB4-Kin2D-1" value="" style="edgeStyle=orthogonalEdgeStyle;rounded=0;orthogonalLoop=1;jettySize=auto;html=1;" parent="1" source="Nu7qu45WXtXJB4-Kin2D-2" target="Nu7qu45WXtXJB4-Kin2D-5" edge="1">
          <mxGeometry relative="1" as="geometry" />
        </mxCell>
        <mxCell id="Nu7qu45WXtXJB4-Kin2D-2" value="" style="verticalLabelPosition=bottom;verticalAlign=top;html=1;shape=offPageConnector;rounded=0;size=0.5;" parent="1" vertex="1">
          <mxGeometry x="414" y="10" width="86" height="90" as="geometry" />
        </mxCell>
        <mxCell id="Nu7qu45WXtXJB4-Kin2D-3" value="Menu Absen&amp;nbsp;&lt;br&gt;&lt;div&gt;Pegawai&lt;/div&gt;" style="text;html=1;align=center;verticalAlign=middle;resizable=0;points=[];autosize=1;strokeColor=none;fillColor=none;" parent="1" vertex="1">
          <mxGeometry x="412" y="30" width="90" height="40" as="geometry" />
        </mxCell>
        <mxCell id="Nu7qu45WXtXJB4-Kin2D-4" value="" style="edgeStyle=orthogonalEdgeStyle;rounded=0;orthogonalLoop=1;jettySize=auto;html=1;" parent="1" source="Nu7qu45WXtXJB4-Kin2D-5" target="Nu7qu45WXtXJB4-Kin2D-7" edge="1">
          <mxGeometry relative="1" as="geometry" />
        </mxCell>
        <mxCell id="Nu7qu45WXtXJB4-Kin2D-5" value="&lt;div&gt;&lt;br&gt;&lt;/div&gt;Anda Berhasil&lt;div&gt;Absen&lt;/div&gt;" style="shape=parallelogram;perimeter=parallelogramPerimeter;whiteSpace=wrap;html=1;fixedSize=1;verticalAlign=top;rounded=0;" parent="1" vertex="1">
          <mxGeometry x="397" y="195" width="120" height="60" as="geometry" />
        </mxCell>
        <mxCell id="Nu7qu45WXtXJB4-Kin2D-6" value="" style="endArrow=classic;html=1;rounded=0;" parent="1" edge="1">
          <mxGeometry width="50" height="50" relative="1" as="geometry">
            <mxPoint x="467" y="250" as="sourcePoint" />
            <mxPoint x="517" y="250" as="targetPoint" />
          </mxGeometry>
        </mxCell>
        <mxCell id="Nu7qu45WXtXJB4-Kin2D-7" value="" style="verticalLabelPosition=bottom;verticalAlign=top;html=1;shape=offPageConnector;rounded=0;size=0.5;" parent="1" vertex="1">
          <mxGeometry x="420.5" y="330" width="73" height="80" as="geometry" />
        </mxCell>
        <mxCell id="Nu7qu45WXtXJB4-Kin2D-8" value="Menu&lt;div&gt;Admin&lt;/div&gt;" style="text;html=1;align=center;verticalAlign=middle;resizable=0;points=[];autosize=1;strokeColor=none;fillColor=none;" parent="1" vertex="1">
          <mxGeometry x="427" y="340" width="60" height="40" as="geometry" />
        </mxCell>
      </root>
    </mxGraphModel>
  </diagram>
</mxfile>
